<?xml version="1.0" encoding="UTF-8"?>
<!-- Generator: Adobe Illustrator 14.0.0, SVG Export Plug-In . SVG Version: 6.00 Build 43363)  -->
<!DOCTYPE svg PUBLIC "-//W3C//DTD SVG 1.1//EN" "http://www.w3.org/Graphics/SVG/1.1/DTD/svg11.dtd">
<svg version="1.1" id="Layer_1" xmlns="http://www.w3.org/2000/svg" xmlns:xlink="http://www.w3.org/1999/xlink" x="0px" y="0px" width="292.971px" height="233.779px" viewBox="0 0 292.971 233.779" enable-background="new 0 0 292.971 233.779" xml:space="preserve">
<rect x="-2.348" y="-1.649" fill="#FFFFFF" width="296.667" height="235.428"/>
<g>
	<path fill="#0099CC" d="M290.875,217.676l-2.972,0.422c0.736,5.182,1.283,10.457,1.625,15.682l2.994-0.194   C292.174,228.232,291.623,222.932,290.875,217.676L290.875,217.676z M285.109,190.295l-2.889,0.811   c1.418,5.052,2.658,10.211,3.688,15.334l2.938-0.59c-0.098-0.492-0.197-0.981-0.301-1.473v-0.002   c-0.025-0.121-0.051-0.242-0.076-0.361c0-0.008,0-0.006-0.002-0.014c-0.008-0.033-0.014-0.068-0.021-0.102   c-0.002-0.008-0.004-0.015-0.004-0.021c-0.008-0.039-0.016-0.074-0.022-0.113c-0.002-0.008,0,0.008-0.002,0   c-0.008-0.041-0.017-0.08-0.023-0.119l-0.004-0.018c-0.008-0.031-0.014-0.063-0.021-0.094c-0.002-0.016-0.002-0.016-0.007-0.031   c-0.006-0.029-0.012-0.057-0.018-0.084c-0.002-0.008-0.006-0.023-0.008-0.031c-0.008-0.037-0.017-0.074-0.023-0.111   c0-0.008-0.002-0.01-0.004-0.018c-0.006-0.029-0.012-0.061-0.02-0.092c-0.002-0.008-0.006-0.033-0.008-0.041   c-0.007-0.023-0.011-0.047-0.017-0.072c-0.004-0.016-0.006-0.025-0.01-0.041c-0.004-0.025-0.01-0.049-0.016-0.074   c-0.005-0.016-0.005-0.022-0.009-0.039c-0.008-0.032-0.016-0.067-0.021-0.102c-0.004-0.016-0.008-0.033-0.012-0.049   c-0.005-0.02-0.009-0.041-0.013-0.061c-0.004-0.017-0.008-0.037-0.012-0.054c-0.004-0.021-0.01-0.039-0.014-0.059   c-0.004-0.017-0.009-0.037-0.013-0.054c-0.004-0.021-0.008-0.041-0.014-0.063c-0.006-0.031-0.012-0.061-0.02-0.092   c-0.005-0.018-0.009-0.035-0.013-0.051c-0.004-0.025-0.008-0.037-0.012-0.062c-0.004-0.017-0.008-0.03-0.012-0.049   c-0.004-0.022-0.008-0.037-0.015-0.062c-0.002-0.014-0.006-0.028-0.008-0.043c-0.014-0.055-0.021-0.09-0.033-0.145   c0-0.004-0.002-0.008-0.002-0.012c-0.006-0.023-0.012-0.049-0.016-0.072c-0.004-0.012-0.006-0.023-0.008-0.035   c-0.006-0.023-0.013-0.047-0.017-0.07c-0.002-0.012-0.006-0.021-0.008-0.033c-0.018-0.078-0.037-0.166-0.055-0.243   c-0.002-0.009-0.004-0.017-0.004-0.023c-0.006-0.022-0.015-0.053-0.019-0.077c-0.002-0.009-0.004-0.019-0.006-0.025   c-0.006-0.023-0.014-0.055-0.018-0.078c-0.002-0.004-0.002-0.008-0.004-0.012c-0.021-0.097-0.037-0.17-0.06-0.267   c-0.002-0.006-0.002-0.01-0.004-0.016c-0.006-0.031-0.012-0.054-0.02-0.084c0-0.005-0.002-0.011-0.002-0.015   c-0.021-0.094-0.039-0.176-0.062-0.27c-0.002-0.002-0.002-0.004-0.002-0.006c-0.008-0.033-0.014-0.055-0.02-0.086   c-0.002-0.006-0.002-0.012-0.004-0.016c-0.029-0.127-0.056-0.238-0.084-0.365c0-0.002,0-0.006-0.003-0.01   c-0.028-0.125-0.057-0.246-0.086-0.373l0,0c-0.008-0.033-0.014-0.062-0.021-0.093c0-0.004,0-0.004-0.002-0.006   c-0.029-0.127-0.058-0.244-0.086-0.371c0-0.002,0-0.006-0.002-0.008c-0.006-0.031-0.015-0.06-0.021-0.09   c-0.002-0.002-0.002-0.002-0.002-0.005c-0.021-0.094-0.043-0.184-0.063-0.276c0-0.002-0.002-0.004-0.002-0.004   c-0.009-0.031-0.015-0.06-0.021-0.09c0-0.002,0-0.007-0.002-0.011c-0.029-0.125-0.055-0.235-0.086-0.36   c0-0.006-0.002-0.013-0.004-0.021c-0.008-0.031-0.012-0.053-0.021-0.084c0,0-0.002-0.002-0.002-0.004   c-0.021-0.094-0.041-0.176-0.063-0.271c-0.002-0.004-0.002-0.009-0.004-0.013c-0.006-0.03-0.013-0.055-0.021-0.086   c-0.002-0.004-0.002-0.008-0.004-0.012c-0.021-0.094-0.041-0.17-0.063-0.264c-0.002-0.006-0.002-0.01-0.004-0.016   c-0.009-0.031-0.013-0.047-0.021-0.078c-0.002-0.008-0.004-0.017-0.006-0.023c-0.008-0.031-0.012-0.049-0.021-0.08   c0-0.004-0.002-0.008-0.002-0.01c-0.021-0.088-0.041-0.172-0.063-0.258c-0.002-0.01-0.004-0.021-0.008-0.027   c-0.008-0.031-0.011-0.043-0.019-0.074c-0.002-0.01-0.004-0.02-0.008-0.029c-0.018-0.078-0.039-0.159-0.059-0.239   c-0.002-0.011-0.004-0.021-0.009-0.031c-0.006-0.022-0.01-0.043-0.016-0.065c-0.004-0.015-0.008-0.027-0.01-0.041   c-0.006-0.023-0.012-0.043-0.019-0.066c-0.002-0.012-0.006-0.023-0.008-0.033c-0.012-0.047-0.021-0.088-0.033-0.135   c-0.002-0.01-0.004-0.02-0.008-0.029c-0.006-0.023-0.01-0.041-0.016-0.064c-0.004-0.016-0.008-0.028-0.012-0.045   c-0.004-0.016-0.011-0.045-0.015-0.061s-0.01-0.033-0.014-0.051c-0.006-0.023-0.008-0.031-0.014-0.057   c-0.007-0.021-0.013-0.045-0.019-0.066c-0.006-0.023-0.016-0.063-0.021-0.088c-0.004-0.016-0.009-0.033-0.013-0.049   s-0.01-0.041-0.014-0.057c-0.006-0.021-0.01-0.037-0.014-0.056c-0.009-0.022-0.009-0.026-0.015-0.051   c-0.006-0.027-0.014-0.056-0.02-0.08c-0.004-0.017-0.008-0.029-0.012-0.045c-0.009-0.029-0.017-0.06-0.021-0.089   c-0.002-0.008-0.01-0.032-0.012-0.041c-0.006-0.022-0.012-0.047-0.019-0.071c-0.004-0.017-0.006-0.021-0.01-0.037   c-0.008-0.026-0.014-0.058-0.021-0.084c-0.002-0.008-0.004-0.021-0.009-0.026c-0.008-0.037-0.018-0.074-0.026-0.109   c-0.002-0.008-0.004-0.016-0.006-0.023c-0.009-0.029-0.015-0.059-0.021-0.088c-0.004-0.016-0.006-0.018-0.01-0.033   c-0.006-0.029-0.014-0.057-0.021-0.086c-0.002-0.008-0.004-0.018-0.006-0.025c-0.02-0.075-0.039-0.151-0.059-0.227   c-0.002-0.008-0.002-0.01-0.004-0.018c-0.011-0.033-0.019-0.066-0.025-0.1c-0.002-0.009-0.004-0.013-0.006-0.021   c-0.029-0.117-0.062-0.234-0.09-0.351l-0.002-0.008C285.838,192.939,285.48,191.615,285.109,190.295L285.109,190.295z    M275.822,163.9l-2.76,1.176c2.06,4.838,3.957,9.795,5.646,14.732l2.84-0.972C279.822,173.791,277.912,168.811,275.822,163.9   L275.822,163.9z M263.283,138.885l-2.597,1.506c2.646,4.555,5.15,9.24,7.447,13.922l2.693-1.319   C268.482,148.211,265.967,143.508,263.283,138.885L263.283,138.885z M247.832,115.553l-2.4,1.799   c3.162,4.221,6.207,8.576,9.051,12.947l2.515-1.635c-0.004-0.008,0.002,0.002-0.004-0.006c-0.021-0.031-0.041-0.063-0.062-0.094   c-0.004-0.008-0.012-0.021-0.016-0.025c-0.017-0.023-0.029-0.045-0.045-0.068c-0.011-0.014-0.017-0.022-0.025-0.037   c-0.012-0.02-0.025-0.039-0.037-0.059c-0.006-0.008-0.021-0.031-0.024-0.039c-0.015-0.02-0.025-0.039-0.039-0.059   c-0.013-0.021-0.025-0.039-0.039-0.062c-0.015-0.021-0.027-0.041-0.041-0.061c-0.013-0.021-0.019-0.029-0.031-0.05   c-0.01-0.016-0.02-0.028-0.027-0.045c-0.01-0.014-0.026-0.039-0.034-0.053c-0.009-0.012-0.017-0.023-0.023-0.035   c-0.014-0.021-0.025-0.037-0.037-0.057c-0.006-0.008-0.01-0.014-0.014-0.021c-0.027-0.041-0.056-0.082-0.082-0.123   c-0.006-0.008-0.013-0.018-0.019-0.026c-0.014-0.021-0.026-0.041-0.039-0.062c-0.006-0.01-0.014-0.018-0.02-0.026   c-0.012-0.021-0.029-0.046-0.041-0.064c-0.004-0.006-0.008-0.012-0.012-0.018c-0.052-0.076-0.103-0.154-0.15-0.229   c-0.002-0.002-0.004-0.004-0.004-0.006c-0.018-0.027-0.033-0.049-0.051-0.074c-0.002-0.004-0.004-0.008-0.006-0.012   c-0.664-1.004-1.332-2-2.015-2.996c0-0.002,0-0.002-0.002-0.002c-0.072-0.109-0.141-0.209-0.215-0.316   c-0.002-0.004-0.004-0.006-0.006-0.01c-0.021-0.027-0.031-0.045-0.051-0.072c-0.004-0.006-0.006-0.01-0.011-0.014   c-0.071-0.107-0.135-0.197-0.209-0.305c-0.004-0.006-0.008-0.012-0.012-0.018c-0.02-0.027-0.029-0.043-0.049-0.07   c-0.002-0.004-0.004-0.008-0.008-0.012c-0.051-0.074-0.096-0.141-0.146-0.213c-0.008-0.01-0.014-0.02-0.02-0.029   c-0.015-0.02-0.027-0.037-0.041-0.059c-0.006-0.01-0.015-0.02-0.021-0.031c-0.014-0.02-0.024-0.037-0.039-0.057   c-0.008-0.01-0.016-0.021-0.021-0.031c-0.027-0.039-0.045-0.064-0.074-0.105c-0.008-0.012-0.016-0.023-0.022-0.033   c-0.015-0.021-0.023-0.035-0.037-0.055c-0.009-0.014-0.019-0.025-0.025-0.039c-0.01-0.012-0.025-0.035-0.035-0.049   c-0.01-0.016-0.021-0.031-0.031-0.047c-0.01-0.012-0.022-0.031-0.032-0.045c-0.021-0.029-0.039-0.057-0.06-0.086   c-0.01-0.014-0.014-0.021-0.022-0.033c-0.015-0.02-0.027-0.039-0.041-0.059c-0.008-0.014-0.021-0.027-0.029-0.041   c-0.012-0.018-0.023-0.035-0.035-0.053c-0.01-0.014-0.02-0.027-0.029-0.041c-0.014-0.021-0.028-0.043-0.045-0.064   c-0.004-0.008-0.014-0.02-0.018-0.025c-0.021-0.031-0.043-0.061-0.063-0.09c-0.01-0.014-0.014-0.021-0.022-0.033   c-0.014-0.02-0.029-0.041-0.043-0.063c-0.01-0.014-0.014-0.02-0.023-0.033c-0.016-0.023-0.032-0.047-0.049-0.07   c-0.004-0.006-0.012-0.016-0.016-0.021c-0.045-0.064-0.09-0.129-0.135-0.193c-0.007-0.006-0.007-0.008-0.013-0.016   c-0.02-0.027-0.039-0.055-0.059-0.082c-0.004-0.008-0.006-0.01-0.01-0.016C250.805,119.584,249.336,117.559,247.832,115.553   L247.832,115.553z M229.832,94.123l-2.188,2.053c3.609,3.85,7.127,7.84,10.453,11.861l2.313-1.91   c-0.158-0.191-0.316-0.383-0.476-0.572c-0.006-0.008-0.002-0.002-0.008-0.008c-0.021-0.029-0.047-0.057-0.068-0.086   c-0.006-0.006-0.004-0.004-0.01-0.01c-0.076-0.092-0.151-0.184-0.229-0.275c-0.004-0.006-0.011-0.012-0.017-0.018   c-0.02-0.025-0.041-0.051-0.061-0.074c-0.006-0.006-0.01-0.012-0.015-0.018c-0.022-0.027-0.047-0.055-0.069-0.084   c-0.006-0.006,0,0-0.006-0.006c-0.025-0.031-0.052-0.061-0.076-0.092c-0.006-0.006-0.01-0.01-0.015-0.018   c-0.02-0.021-0.039-0.045-0.059-0.068c-0.01-0.012-0.014-0.016-0.025-0.029c-0.016-0.02-0.032-0.039-0.049-0.059   c-0.006-0.008-0.021-0.025-0.024-0.031c-0.019-0.021-0.035-0.041-0.054-0.061c-0.004-0.008-0.018-0.021-0.021-0.027   c-0.023-0.027-0.047-0.055-0.07-0.084c-0.01-0.012-0.016-0.02-0.026-0.031c-0.017-0.018-0.029-0.037-0.046-0.055   c-0.012-0.012-0.021-0.025-0.032-0.039c-0.015-0.016-0.027-0.031-0.039-0.047c-0.019-0.02-0.019-0.02-0.033-0.039   c-0.016-0.018-0.029-0.033-0.043-0.051c-0.021-0.025-0.033-0.039-0.055-0.064c-0.017-0.018-0.029-0.033-0.043-0.051   c-0.017-0.02-0.021-0.025-0.037-0.045c-0.013-0.012-0.021-0.025-0.033-0.039c-0.01-0.012-0.029-0.035-0.041-0.047   c-0.01-0.014-0.021-0.025-0.031-0.039c-0.016-0.018-0.024-0.027-0.041-0.047c-0.008-0.01-0.018-0.021-0.026-0.031   c-0.031-0.039-0.056-0.066-0.087-0.104c-0.008-0.008-0.014-0.016-0.021-0.023c-0.016-0.02-0.029-0.035-0.045-0.055   c-0.008-0.01-0.019-0.02-0.025-0.031c-0.018-0.018-0.03-0.035-0.047-0.053c-0.008-0.01-0.016-0.018-0.021-0.027   c-0.019-0.018-0.033-0.039-0.052-0.057c0-0.002-0.002-0.004-0.004-0.006c-0.041-0.049-0.073-0.088-0.116-0.139   c-0.003-0.002-0.007-0.006-0.009-0.01c-0.018-0.02-0.037-0.043-0.055-0.063c-0.004-0.006-0.01-0.012-0.016-0.02   c-0.021-0.023-0.031-0.037-0.054-0.063c-0.004-0.004-0.01-0.01-0.014-0.016c-0.08-0.094-0.162-0.189-0.242-0.283   c-0.004-0.004-0.008-0.008-0.01-0.012c-0.021-0.025-0.039-0.045-0.061-0.07l0,0c-0.064-0.076-0.128-0.146-0.191-0.223   c0-0.002-0.002-0.004-0.004-0.004c-0.021-0.025-0.037-0.045-0.06-0.07c-0.004-0.004-0.006-0.006-0.008-0.008   c-0.106-0.125-0.211-0.246-0.317-0.371c-0.002-0.002-0.002-0.002-0.002-0.002C234.721,99.445,232.313,96.768,229.832,94.123   L229.832,94.123z M209.637,74.748l-1.961,2.269c3.992,3.452,7.914,7.05,11.656,10.694l2.094-2.15   c-1.842-1.793-3.713-3.562-5.613-5.309l-0.006-0.005c-0.092-0.083-0.182-0.167-0.272-0.251l0,0c-0.029-0.026-0.06-0.053-0.089-0.08   l-0.01-0.01c-0.028-0.025-0.057-0.051-0.086-0.077l-0.002-0.002c-0.09-0.083-0.18-0.165-0.271-0.248   c-0.007-0.006-0.004-0.005-0.013-0.011c-0.024-0.024-0.053-0.049-0.08-0.073c-0.006-0.005-0.002-0.002-0.008-0.008   c-0.061-0.055-0.121-0.11-0.182-0.166l0,0c-0.029-0.026-0.06-0.052-0.086-0.078c-0.008-0.006-0.01-0.009-0.019-0.015   c-0.022-0.023-0.049-0.045-0.073-0.068c-0.007-0.006-0.009-0.007-0.015-0.012c-0.026-0.025-0.055-0.049-0.08-0.074   c-0.008-0.005-0.002-0.001-0.008-0.007c-0.061-0.054-0.117-0.106-0.178-0.16c-0.006-0.006-0.014-0.012-0.021-0.018   c-0.021-0.021-0.045-0.041-0.067-0.062c-0.006-0.006-0.017-0.015-0.021-0.02c-0.022-0.021-0.045-0.041-0.067-0.062   c-0.013-0.011-0.009-0.007-0.021-0.018c-0.059-0.052-0.115-0.105-0.174-0.157c-0.006-0.005-0.016-0.013-0.021-0.019   c-0.021-0.02-0.043-0.04-0.065-0.06c-0.012-0.012-0.012-0.011-0.023-0.022c-0.021-0.02-0.043-0.04-0.065-0.06   c-0.006-0.006-0.017-0.014-0.021-0.02c-0.057-0.052-0.115-0.103-0.172-0.155c-0.006-0.005-0.021-0.019-0.027-0.024   c-0.02-0.018-0.038-0.036-0.061-0.054c-0.012-0.011-0.016-0.015-0.027-0.026c-0.02-0.018-0.041-0.036-0.061-0.054   c-0.006-0.005-0.021-0.019-0.027-0.024c-0.024-0.022-0.051-0.045-0.076-0.068c-0.006-0.005-0.004-0.003-0.01-0.009   c-0.026-0.025-0.057-0.051-0.086-0.077c-0.012-0.011-0.014-0.012-0.024-0.023c-0.021-0.018-0.041-0.036-0.062-0.054   c-0.012-0.011-0.016-0.015-0.029-0.026c-0.02-0.017-0.039-0.035-0.059-0.052c-0.006-0.005-0.023-0.021-0.029-0.027   c-0.022-0.021-0.049-0.042-0.071-0.064c-0.007-0.006-0.007-0.005-0.013-0.011c-0.028-0.025-0.059-0.051-0.086-0.077   c-0.014-0.011-0.012-0.01-0.024-0.021c-0.021-0.019-0.043-0.038-0.064-0.057c-0.006-0.006-0.02-0.019-0.027-0.025   c-0.018-0.017-0.036-0.034-0.057-0.05c-0.012-0.011-0.02-0.019-0.033-0.03c-0.02-0.018-0.041-0.036-0.061-0.054   c-0.013-0.011-0.013-0.01-0.023-0.021c-0.028-0.025-0.059-0.051-0.086-0.076c-0.006-0.005-0.014-0.012-0.02-0.018   c-0.023-0.02-0.045-0.039-0.066-0.059c-0.006-0.006-0.022-0.021-0.029-0.026c-0.02-0.017-0.039-0.034-0.059-0.051   c-0.012-0.011-0.018-0.017-0.031-0.028c-0.021-0.019-0.043-0.039-0.063-0.058c-0.015-0.011-0.006-0.006-0.021-0.017   c-0.028-0.026-0.059-0.052-0.088-0.078c-0.006-0.005-0.006-0.005-0.012-0.011c-0.025-0.022-0.051-0.044-0.076-0.066   c-0.006-0.006-0.02-0.018-0.025-0.023c-0.02-0.018-0.039-0.036-0.059-0.053c-0.014-0.011-0.021-0.016-0.031-0.027   c-0.021-0.019-0.043-0.038-0.063-0.057c-0.006-0.006-0.017-0.014-0.021-0.019c-0.059-0.052-0.119-0.104-0.178-0.157   c-0.006-0.005-0.01-0.008-0.016-0.014c-0.023-0.021-0.05-0.042-0.072-0.064c-0.015-0.011-0.01-0.009-0.023-0.02   c-0.022-0.021-0.045-0.042-0.069-0.062c-0.007-0.006-0.011-0.01-0.017-0.016c-0.061-0.053-0.121-0.105-0.182-0.158l-0.012-0.011   c-0.025-0.021-0.05-0.043-0.074-0.065c-0.006-0.005-0.019-0.015-0.023-0.021c-0.022-0.021-0.047-0.041-0.069-0.062   c-0.007-0.006-0.013-0.01-0.019-0.016c-0.09-0.08-0.182-0.159-0.271-0.238c-0.007-0.006-0.007-0.006-0.015-0.011   c-0.026-0.024-0.055-0.048-0.082-0.072c-0.006-0.005,0,0-0.006-0.006C210.332,75.349,209.984,75.048,209.637,74.748L209.637,74.748   z M187.576,57.52l-1.729,2.452c4.316,3.041,8.582,6.23,12.685,9.478l1.86-2.352c-2.002-1.586-4.022-3.143-6.078-4.682l0,0   c-0.137-0.103-0.27-0.202-0.405-0.304c-0.003-0.002-0.007-0.003-0.009-0.005c-0.026-0.021-0.045-0.034-0.071-0.054   c-0.007-0.004-0.013-0.009-0.019-0.013c-0.026-0.021-0.043-0.033-0.07-0.053c-0.002-0.001-0.004-0.002-0.006-0.003   c-0.082-0.062-0.153-0.115-0.235-0.177c-0.004-0.002-0.006-0.004-0.008-0.006c-0.029-0.021-0.044-0.032-0.072-0.053   c-0.006-0.004-0.01-0.008-0.017-0.013c-0.028-0.021-0.041-0.03-0.067-0.05c-0.006-0.005-0.015-0.01-0.021-0.015   c-0.098-0.071-0.205-0.152-0.301-0.223c-0.01-0.006-0.018-0.012-0.025-0.018c-0.02-0.015-0.041-0.032-0.063-0.047   c-0.008-0.006-0.016-0.012-0.025-0.018c-0.02-0.016-0.043-0.032-0.063-0.047c-0.008-0.006-0.019-0.012-0.025-0.018   c-0.074-0.056-0.149-0.111-0.225-0.167c-0.002-0.001-0.004-0.003-0.006-0.004c-0.021-0.015-0.045-0.033-0.066-0.048   c-0.008-0.006-0.018-0.013-0.024-0.019c-0.027-0.021-0.037-0.027-0.064-0.047c-0.008-0.006-0.016-0.012-0.023-0.017   c-0.02-0.015-0.043-0.033-0.063-0.048c-0.006-0.005-0.012-0.009-0.021-0.014c-0.075-0.056-0.149-0.111-0.227-0.167   c-0.002-0.002-0.006-0.004-0.008-0.006c-0.027-0.021-0.045-0.032-0.072-0.052c-0.006-0.004-0.012-0.009-0.018-0.014   c-0.027-0.02-0.043-0.031-0.07-0.051c-0.004-0.004-0.01-0.007-0.014-0.011c-0.111-0.081-0.214-0.155-0.322-0.236h-0.002   c-0.027-0.02-0.051-0.037-0.078-0.058c-0.002-0.002-0.006-0.004-0.008-0.006C190.197,59.383,188.898,58.451,187.576,57.52   L187.576,57.52z M163.955,42.506l-1.488,2.604c4.582,2.619,9.135,5.385,13.535,8.222l1.625-2.521   c-1.394-0.898-2.795-1.785-4.205-2.663l-0.008-0.004c-0.14-0.087-0.279-0.173-0.418-0.26l-0.009-0.004   c-0.03-0.019-0.063-0.039-0.094-0.058c-0.006-0.004-0.01-0.006-0.018-0.011c-0.027-0.017-0.056-0.034-0.082-0.051   c-0.008-0.005-0.017-0.009-0.021-0.014c-0.028-0.017-0.057-0.035-0.086-0.052l-0.016-0.01c-0.068-0.042-0.137-0.083-0.203-0.125   l-0.021-0.012c-0.024-0.016-0.053-0.033-0.077-0.049c-0.009-0.004-0.021-0.014-0.029-0.018c-0.025-0.015-0.049-0.029-0.072-0.044   c-0.008-0.004-0.021-0.013-0.029-0.018c-0.022-0.015-0.049-0.03-0.073-0.045c-0.008-0.005-0.021-0.013-0.027-0.018   c-0.033-0.02-0.063-0.04-0.098-0.06l-0.002-0.001c-0.033-0.021-0.066-0.041-0.101-0.061c-0.014-0.009-0.012-0.008-0.026-0.017   c-0.023-0.015-0.05-0.03-0.072-0.044c-0.008-0.004-0.027-0.017-0.035-0.021c-0.021-0.013-0.041-0.025-0.061-0.038   c-0.017-0.009-0.027-0.017-0.043-0.025c-0.021-0.012-0.039-0.025-0.062-0.037c-0.014-0.009-0.022-0.014-0.037-0.023   c-0.026-0.017-0.055-0.033-0.082-0.05c-0.008-0.004-0.008-0.004-0.016-0.009c-0.033-0.02-0.066-0.04-0.099-0.06   c-0.016-0.009-0.021-0.013-0.036-0.022c-0.021-0.013-0.041-0.025-0.062-0.038c-0.016-0.009-0.029-0.018-0.045-0.026   c-0.018-0.012-0.037-0.023-0.057-0.035c-0.017-0.009-0.025-0.016-0.041-0.024c-0.021-0.013-0.041-0.025-0.062-0.038   c-0.008-0.004-0.033-0.02-0.039-0.024c-0.021-0.013-0.043-0.026-0.063-0.039c-0.015-0.009-0.021-0.013-0.035-0.022   c-0.031-0.019-0.063-0.038-0.094-0.057c-0.015-0.009-0.029-0.018-0.043-0.027c-0.021-0.011-0.037-0.022-0.058-0.034   c-0.016-0.009-0.031-0.019-0.047-0.028c-0.018-0.01-0.033-0.021-0.051-0.031c-0.014-0.009-0.033-0.02-0.047-0.029   c-0.021-0.011-0.037-0.022-0.056-0.033c-0.016-0.009-0.028-0.018-0.045-0.026c-0.02-0.013-0.041-0.026-0.063-0.039   c-0.017-0.009-0.021-0.012-0.035-0.021c-0.031-0.019-0.063-0.039-0.096-0.058c-0.015-0.009-0.021-0.014-0.037-0.023   c-0.021-0.012-0.041-0.025-0.063-0.037c-0.006-0.004-0.035-0.022-0.043-0.026c-0.018-0.011-0.037-0.022-0.055-0.034   c-0.016-0.009-0.029-0.018-0.045-0.027c-0.019-0.011-0.037-0.021-0.055-0.033c-0.015-0.009-0.031-0.02-0.048-0.028   c-0.018-0.011-0.036-0.022-0.055-0.033c-0.014-0.009-0.027-0.017-0.043-0.026c-0.031-0.019-0.063-0.038-0.094-0.057   c-0.017-0.009-0.021-0.012-0.035-0.021c-0.021-0.013-0.045-0.027-0.066-0.04c-0.008-0.004-0.032-0.02-0.041-0.025   c-0.018-0.011-0.036-0.022-0.057-0.034c-0.014-0.009-0.031-0.019-0.045-0.028c-0.021-0.011-0.037-0.022-0.057-0.033   c-0.015-0.009-0.027-0.017-0.043-0.026c-0.021-0.012-0.041-0.025-0.063-0.037c-0.014-0.009-0.021-0.013-0.035-0.022   c-0.033-0.019-0.063-0.038-0.096-0.057c-0.016-0.009-0.021-0.012-0.035-0.021c-0.021-0.013-0.043-0.026-0.063-0.039   c-0.017-0.009-0.029-0.018-0.046-0.026c-0.018-0.011-0.036-0.022-0.057-0.034c-0.014-0.009-0.027-0.017-0.041-0.025   c-0.021-0.012-0.041-0.024-0.061-0.037c-0.017-0.009-0.025-0.014-0.041-0.023c-0.021-0.013-0.043-0.026-0.064-0.039   c-0.016-0.009-0.02-0.012-0.035-0.021c-0.028-0.018-0.061-0.036-0.092-0.055c-0.008-0.004-0.016-0.01-0.022-0.015   c-0.027-0.016-0.058-0.033-0.084-0.049c-0.015-0.009-0.017-0.01-0.031-0.019c-0.021-0.014-0.045-0.027-0.068-0.041   c-0.014-0.009-0.021-0.013-0.037-0.021c-0.021-0.013-0.043-0.027-0.065-0.04c-0.009-0.004-0.025-0.016-0.033-0.02   c-0.023-0.014-0.049-0.029-0.072-0.043c-0.008-0.004-0.021-0.012-0.029-0.017c-0.065-0.041-0.135-0.081-0.202-0.121l-0.019-0.01   c-0.029-0.017-0.057-0.034-0.086-0.051c-0.008-0.004-0.014-0.008-0.021-0.013c-0.027-0.016-0.054-0.032-0.08-0.047   c-0.009-0.004-0.021-0.012-0.027-0.016c-0.027-0.016-0.055-0.033-0.084-0.049l-0.016-0.01c-0.104-0.061-0.207-0.122-0.312-0.184   c-0.008-0.004-0.016-0.008-0.022-0.013c-0.027-0.017-0.058-0.033-0.084-0.05c-0.009-0.004-0.011-0.006-0.019-0.01   c-0.031-0.019-0.063-0.037-0.094-0.055l-0.008-0.005c-0.107-0.063-0.215-0.125-0.32-0.188l-0.006-0.003   c-0.033-0.02-0.068-0.04-0.103-0.059l-0.006-0.004C165.84,43.59,164.9,43.046,163.955,42.506L163.955,42.506z M139.045,29.742   l-1.246,2.729c4.799,2.191,9.59,4.529,14.238,6.948l1.385-2.661c-0.463-0.241-0.92-0.477-1.383-0.715   c-0.004-0.001-0.008-0.003-0.013-0.005c-0.03-0.016-0.055-0.028-0.086-0.044c-0.002-0.001-0.006-0.003-0.008-0.005   c-0.031-0.016-0.057-0.029-0.09-0.045c0,0,0-0.001-0.002-0.001c-0.117-0.061-0.242-0.124-0.359-0.184   c-0.008-0.004-0.016-0.008-0.022-0.012c-0.023-0.012-0.049-0.025-0.072-0.037c-0.01-0.005-0.02-0.01-0.029-0.015   c-0.016-0.008-0.051-0.026-0.065-0.034c-0.012-0.006-0.023-0.012-0.037-0.018c-0.023-0.012-0.043-0.022-0.066-0.035   c-0.01-0.004-0.018-0.009-0.026-0.014c-0.078-0.04-0.15-0.076-0.229-0.116c-0.014-0.007-0.026-0.014-0.039-0.021   c-0.022-0.012-0.037-0.019-0.061-0.031c-0.015-0.006-0.027-0.013-0.041-0.02c-0.017-0.008-0.045-0.023-0.062-0.031   c-0.014-0.007-0.028-0.015-0.043-0.022c-0.016-0.008-0.041-0.021-0.059-0.029c-0.017-0.008-0.031-0.016-0.047-0.024   c-0.023-0.012-0.029-0.015-0.054-0.027c-0.02-0.01-0.036-0.019-0.057-0.029c-0.016-0.008-0.035-0.018-0.051-0.026   c-0.031-0.016-0.063-0.031-0.094-0.047c-0.017-0.008-0.033-0.017-0.05-0.025c-0.018-0.009-0.036-0.018-0.055-0.027   c-0.016-0.008-0.033-0.017-0.049-0.024c-0.018-0.009-0.037-0.019-0.055-0.028c-0.017-0.008-0.035-0.017-0.052-0.025   c-0.018-0.009-0.034-0.018-0.053-0.027c-0.016-0.008-0.035-0.017-0.051-0.025c-0.018-0.009-0.035-0.018-0.053-0.027   c-0.019-0.008-0.035-0.017-0.052-0.025c-0.026-0.014-0.055-0.028-0.081-0.042c-0.009-0.004-0.011-0.005-0.019-0.009   c-0.035-0.017-0.07-0.035-0.104-0.052c-0.017-0.008-0.021-0.009-0.035-0.017c-0.023-0.012-0.047-0.024-0.07-0.036   c-0.008-0.004-0.033-0.017-0.041-0.021c-0.02-0.01-0.041-0.021-0.061-0.031c-0.017-0.008-0.029-0.015-0.045-0.022   c-0.021-0.011-0.044-0.021-0.063-0.031c-0.008-0.004-0.035-0.017-0.043-0.021c-0.021-0.011-0.043-0.021-0.063-0.032   c-0.016-0.008-0.026-0.013-0.043-0.021c-0.028-0.015-0.059-0.03-0.09-0.045c-0.016-0.008-0.008-0.004-0.022-0.012   c-0.031-0.016-0.062-0.031-0.092-0.046c-0.017-0.008-0.021-0.009-0.035-0.017c-0.023-0.012-0.047-0.023-0.07-0.035   c-0.008-0.004-0.029-0.015-0.039-0.019c-0.021-0.011-0.043-0.022-0.066-0.034c-0.016-0.008-0.022-0.012-0.038-0.02   c-0.023-0.012-0.048-0.023-0.07-0.035c-0.008-0.004-0.025-0.013-0.033-0.017c-0.027-0.013-0.053-0.027-0.08-0.04   c-0.008-0.004-0.018-0.009-0.024-0.013c-0.035-0.018-0.072-0.035-0.107-0.053h-0.002c-0.033-0.017-0.068-0.034-0.103-0.051   c-0.008-0.004-0.02-0.01-0.026-0.014c-0.027-0.013-0.053-0.026-0.08-0.04c-0.008-0.004-0.023-0.012-0.031-0.016   c-0.024-0.012-0.049-0.024-0.072-0.036c-0.016-0.008-0.021-0.011-0.036-0.019c-0.025-0.012-0.05-0.024-0.074-0.036   c-0.008-0.004-0.023-0.012-0.031-0.016c-0.029-0.015-0.061-0.03-0.092-0.045c-0.008-0.004-0.004-0.002-0.012-0.006   c-0.037-0.018-0.074-0.036-0.109-0.054l-0.004-0.001c-0.033-0.017-0.068-0.034-0.103-0.05c-0.008-0.004-0.018-0.009-0.024-0.013   c-0.027-0.014-0.056-0.027-0.082-0.041c-0.008-0.004-0.019-0.009-0.025-0.013c-0.026-0.013-0.057-0.027-0.082-0.04   c-0.008-0.004-0.02-0.01-0.026-0.014c-0.029-0.014-0.058-0.027-0.084-0.042c-0.011-0.004-0.017-0.007-0.023-0.011   c-0.033-0.017-0.066-0.033-0.1-0.049l-0.009-0.003c-0.071-0.036-0.143-0.071-0.215-0.106c-0.008-0.004-0.014-0.006-0.021-0.01   c-0.029-0.014-0.06-0.028-0.086-0.042c-0.011-0.004-0.019-0.008-0.025-0.012c-0.027-0.014-0.057-0.027-0.084-0.041   c-0.008-0.004-0.018-0.009-0.024-0.013c-0.029-0.015-0.062-0.03-0.093-0.045l-0.014-0.007c-0.072-0.035-0.146-0.07-0.217-0.106   c-0.008-0.004-0.013-0.005-0.021-0.009c-0.028-0.014-0.057-0.028-0.086-0.042c-0.008-0.004-0.024-0.012-0.033-0.016   c-0.022-0.012-0.049-0.024-0.073-0.036c-0.017-0.008-0.017-0.008-0.033-0.016c-0.025-0.013-0.051-0.025-0.076-0.038   c-0.008-0.004-0.021-0.01-0.029-0.014c-0.028-0.015-0.061-0.029-0.09-0.043c-0.008-0.004-0.008-0.004-0.016-0.007   c-0.072-0.035-0.146-0.071-0.217-0.105l-0.021-0.01c-0.027-0.014-0.057-0.027-0.084-0.042c-0.008-0.004-0.021-0.01-0.029-0.014   c-0.026-0.013-0.053-0.025-0.078-0.038c-0.018-0.007-0.016-0.007-0.03-0.015c-0.027-0.012-0.052-0.024-0.078-0.037   c-0.008-0.004-0.021-0.011-0.029-0.015c-0.031-0.015-0.061-0.029-0.092-0.044c-0.008-0.004-0.006-0.003-0.014-0.007   c-0.072-0.035-0.146-0.069-0.218-0.104c-0.008-0.003-0.016-0.008-0.022-0.011c-0.027-0.013-0.055-0.026-0.082-0.04   c-0.008-0.004-0.025-0.012-0.033-0.016c-0.025-0.012-0.051-0.024-0.076-0.037c-0.008-0.004-0.021-0.011-0.031-0.015   c-0.024-0.012-0.051-0.025-0.075-0.037c-0.011-0.004-0.023-0.011-0.031-0.015c-0.031-0.015-0.063-0.03-0.094-0.044   c-0.009-0.004-0.004-0.002-0.013-0.006c-0.034-0.018-0.071-0.035-0.106-0.052c-0.008-0.004-0.015-0.006-0.021-0.01   c-0.028-0.014-0.057-0.028-0.086-0.042c-0.008-0.004-0.022-0.011-0.03-0.015c-0.025-0.012-0.052-0.024-0.074-0.036   c-0.019-0.007-0.021-0.009-0.035-0.017c-0.025-0.012-0.051-0.024-0.074-0.036c-0.008-0.004-0.027-0.012-0.035-0.016   c-0.024-0.012-0.049-0.024-0.074-0.036c-0.008-0.004-0.022-0.011-0.03-0.015c-0.033-0.016-0.066-0.032-0.101-0.048l-0.006-0.003   c-0.037-0.017-0.072-0.035-0.108-0.052c-0.009-0.004-0.013-0.006-0.021-0.01c-0.029-0.014-0.059-0.028-0.088-0.042   c-0.008-0.004-0.021-0.01-0.029-0.014c-0.024-0.012-0.051-0.024-0.076-0.037c-0.016-0.008-0.021-0.01-0.036-0.018   c-0.023-0.011-0.048-0.022-0.07-0.034c-0.008-0.004-0.027-0.013-0.035-0.017c-0.025-0.012-0.051-0.024-0.076-0.036   c-0.016-0.008-0.016-0.007-0.031-0.015c-0.069-0.033-0.141-0.067-0.211-0.1c-0.016-0.007-0.021-0.01-0.039-0.018   c-0.021-0.011-0.045-0.022-0.067-0.033c-0.008-0.004-0.031-0.015-0.039-0.019c-0.021-0.011-0.045-0.021-0.068-0.032   c-0.016-0.008-0.022-0.011-0.039-0.019c-0.022-0.011-0.047-0.022-0.069-0.033c-0.009-0.004-0.029-0.014-0.037-0.018   c-0.023-0.011-0.047-0.022-0.068-0.033c-0.018-0.008-0.022-0.011-0.039-0.019c-0.035-0.016-0.07-0.032-0.104-0.049   c-0.009-0.003-0.013-0.005-0.021-0.008c-0.029-0.014-0.059-0.028-0.088-0.042c-0.016-0.007-0.02-0.009-0.035-0.017   c-0.022-0.011-0.047-0.022-0.069-0.033c-0.011-0.004-0.031-0.015-0.039-0.019c-0.023-0.011-0.048-0.021-0.068-0.032   c-0.018-0.007-0.025-0.011-0.041-0.019c-0.023-0.012-0.049-0.023-0.072-0.035c-0.008-0.004-0.022-0.011-0.03-0.015   c-0.031-0.014-0.062-0.028-0.091-0.042c-0.01-0.004-0.01-0.004-0.018-0.008c-0.037-0.017-0.074-0.034-0.109-0.051   c-0.01-0.004,0,0-0.008-0.003c-0.033-0.015-0.063-0.03-0.098-0.046c-0.008-0.003-0.027-0.012-0.035-0.016   c-0.023-0.012-0.049-0.023-0.072-0.034c-0.018-0.008-0.021-0.01-0.037-0.017c-0.022-0.011-0.049-0.022-0.071-0.034   c-0.009-0.004-0.027-0.013-0.035-0.017c-0.025-0.012-0.054-0.024-0.078-0.037c-0.008-0.004-0.021-0.009-0.027-0.013   c-0.074-0.034-0.146-0.068-0.219-0.102c-0.01-0.003,0,0.001-0.008-0.003c-0.033-0.016-0.066-0.031-0.101-0.047   c-0.008-0.003-0.018-0.008-0.026-0.012c-0.025-0.012-0.054-0.025-0.08-0.038c-0.008-0.004-0.021-0.01-0.029-0.014   c-0.027-0.012-0.055-0.025-0.082-0.037c-0.008-0.004-0.021-0.01-0.029-0.014c-0.028-0.014-0.061-0.028-0.09-0.042l-0.016-0.007   c-0.109-0.051-0.221-0.103-0.33-0.154c-0.008-0.003-0.014-0.005-0.021-0.009c-0.028-0.014-0.061-0.028-0.09-0.042l-0.02-0.009   c-0.031-0.014-0.063-0.028-0.094-0.042c-0.009-0.004-0.011-0.004-0.019-0.008c-0.035-0.016-0.067-0.032-0.104-0.048l-0.007-0.002   c-0.073-0.035-0.149-0.069-0.225-0.104l-0.006-0.003c-0.035-0.016-0.068-0.032-0.104-0.047c-0.008-0.004-0.008-0.004-0.018-0.008   c-0.031-0.015-0.063-0.029-0.096-0.044L139.609,30c-0.032-0.015-0.065-0.03-0.098-0.045c-0.01-0.004-0.006-0.003-0.016-0.006   c-0.111-0.052-0.224-0.103-0.336-0.154l-0.005-0.002c-0.034-0.016-0.071-0.033-0.106-0.049   C139.041,29.741,139.053,29.746,139.045,29.742L139.045,29.742z M113.094,19.25l-1.002,2.828c4.973,1.762,9.953,3.667,14.803,5.663   l1.144-2.774c-2.146-0.882-4.304-1.743-6.478-2.583c-0.008-0.003-0.008-0.003-0.016-0.006c-0.033-0.013-0.066-0.025-0.101-0.038   c-0.008-0.003-0.006-0.003-0.016-0.006c-0.031-0.012-0.063-0.025-0.096-0.037c-0.008-0.003-0.013-0.004-0.021-0.008   c-0.035-0.013-0.069-0.027-0.104-0.04c-0.01-0.003,0,0-0.008-0.003c-0.076-0.029-0.15-0.058-0.228-0.086   c-0.016-0.007-0.014-0.005-0.031-0.012c-0.024-0.01-0.051-0.019-0.075-0.029c-0.017-0.006-0.031-0.012-0.048-0.018   c-0.02-0.008-0.038-0.015-0.061-0.023c-0.016-0.006-0.035-0.013-0.051-0.02c-0.021-0.007-0.037-0.014-0.056-0.021   c-0.018-0.006-0.043-0.016-0.061-0.022c-0.016-0.006-0.029-0.012-0.045-0.017c-0.025-0.01-0.037-0.015-0.063-0.024   c-0.014-0.005-0.024-0.01-0.039-0.015c-0.094-0.036-0.172-0.065-0.266-0.101c-0.002-0.001-0.004-0.002-0.008-0.003   c-0.025-0.009-0.057-0.021-0.082-0.031c-0.008-0.003-0.019-0.007-0.027-0.011c-0.024-0.01-0.051-0.02-0.076-0.029   c-0.01-0.003-0.02-0.007-0.028-0.011c-0.025-0.01-0.054-0.02-0.078-0.03c-0.01-0.003-0.019-0.006-0.025-0.01   c-0.024-0.01-0.061-0.023-0.086-0.032l-0.002-0.001C117.559,20.86,115.332,20.043,113.094,19.25L113.094,19.25z M86.33,11.042   l-0.756,2.903c5.104,1.331,10.229,2.802,15.239,4.371l0.896-2.863c-0.008-0.002-0.008-0.002-0.019-0.005   c-0.014-0.004-0.028-0.009-0.045-0.014c-0.024-0.008-0.039-0.012-0.065-0.021c-0.008-0.003-0.017-0.005-0.025-0.008   c-0.051-0.017-0.098-0.031-0.149-0.047c-0.013-0.004-0.025-0.008-0.039-0.012c-0.025-0.008-0.035-0.011-0.063-0.02   c-0.016-0.005-0.033-0.01-0.049-0.015c-0.025-0.008-0.039-0.012-0.064-0.021c-0.016-0.004-0.03-0.009-0.047-0.014   c-0.018-0.005-0.045-0.014-0.063-0.02c-0.017-0.005-0.033-0.011-0.052-0.016c-0.018-0.006-0.043-0.013-0.061-0.019   c-0.018-0.005-0.035-0.011-0.053-0.017c-0.019-0.006-0.039-0.012-0.058-0.017c-0.018-0.006-0.037-0.012-0.055-0.018   c-0.018-0.005-0.043-0.013-0.061-0.019c-0.017-0.004-0.031-0.009-0.045-0.014c-0.019-0.005-0.05-0.015-0.066-0.02   c-0.01-0.003-0.021-0.007-0.033-0.011c-0.045-0.014-0.084-0.025-0.127-0.039c-0.02-0.006-0.039-0.012-0.057-0.018   c-0.027-0.008-0.033-0.01-0.062-0.019c-0.016-0.005-0.033-0.01-0.049-0.015c-0.027-0.008-0.037-0.012-0.063-0.02   c-0.017-0.005-0.033-0.01-0.05-0.015c-0.018-0.005-0.043-0.013-0.061-0.019c-0.019-0.006-0.035-0.011-0.053-0.016   c-0.019-0.005-0.041-0.013-0.06-0.018c-0.018-0.005-0.037-0.011-0.055-0.017c-0.025-0.008-0.033-0.01-0.062-0.019   c-0.014-0.004-0.026-0.009-0.043-0.013c-0.024-0.008-0.043-0.013-0.069-0.021c-0.008-0.003-0.019-0.006-0.027-0.009   c-0.053-0.016-0.115-0.035-0.168-0.051c-0.006-0.002-0.012-0.003-0.018-0.005c-0.027-0.008-0.045-0.014-0.072-0.022   c-0.014-0.004-0.025-0.008-0.039-0.012c-0.027-0.008-0.045-0.013-0.07-0.021c-0.014-0.004-0.026-0.008-0.041-0.012   c-0.024-0.008-0.043-0.014-0.069-0.021c-0.015-0.004-0.027-0.008-0.041-0.013c-0.019-0.005-0.05-0.015-0.066-0.02   c-0.016-0.005-0.031-0.009-0.047-0.014c-0.025-0.008-0.043-0.013-0.068-0.021c-0.012-0.003-0.022-0.007-0.035-0.011   c-0.026-0.008-0.051-0.015-0.075-0.023c-0.011-0.002-0.019-0.005-0.025-0.007c-0.123-0.038-0.266-0.081-0.389-0.118   c-0.006-0.002-0.013-0.003-0.019-0.005c-0.024-0.008-0.061-0.018-0.086-0.026c-0.008-0.002-0.016-0.004-0.022-0.007   c-0.025-0.008-0.056-0.017-0.082-0.024c-0.011-0.003-0.021-0.006-0.031-0.009c-0.025-0.008-0.055-0.017-0.08-0.024   c-0.008-0.002-0.016-0.005-0.023-0.007c-0.026-0.008-0.063-0.019-0.09-0.027c-0.004-0.001-0.008-0.002-0.012-0.003   c-0.211-0.063-0.414-0.124-0.625-0.187c0,0,0,0-0.002,0c-3.666-1.095-7.361-2.128-11.094-3.103c-0.004,0-0.006-0.001-0.011-0.002   C86.357,11.048,86.34,11.043,86.33,11.042L86.33,11.042z M58.973,5.116L58.46,8.071c5.197,0.902,10.432,1.938,15.558,3.08   l0.652-2.928c-3.296-0.734-6.614-1.421-9.954-2.06c-0.002,0-0.004-0.001-0.006-0.001c-0.037-0.007-0.067-0.013-0.104-0.02   c-0.003-0.001-0.007-0.001-0.011-0.002c-0.036-0.007-0.063-0.012-0.1-0.019c-0.006-0.001-0.012-0.002-0.018-0.003   c-0.037-0.007-0.062-0.012-0.099-0.019c-0.001,0-0.003-0.001-0.005-0.001c-0.103-0.02-0.212-0.041-0.313-0.06   c-0.006-0.001-0.011-0.002-0.017-0.003c-0.027-0.005-0.041-0.007-0.068-0.013c-0.017-0.003-0.032-0.006-0.049-0.009   c-0.019-0.003-0.041-0.008-0.06-0.011c-0.021-0.004-0.041-0.008-0.063-0.012c-0.01-0.001-0.04-0.007-0.05-0.009   c-0.023-0.004-0.047-0.009-0.07-0.013c-0.019-0.003-0.025-0.005-0.045-0.008c-0.024-0.005-0.052-0.01-0.078-0.015   c-0.019-0.004-0.02-0.004-0.038-0.007c-0.027-0.005-0.056-0.01-0.083-0.016c-0.009-0.001-0.024-0.005-0.034-0.006   c-0.032-0.006-0.064-0.012-0.099-0.019C63.299,5.896,63.3,5.896,63.29,5.894C61.856,5.625,60.417,5.366,58.973,5.116L58.973,5.116z    M31.221,1.461L30.95,4.449c5.253,0.476,10.556,1.08,15.76,1.796l0.409-2.972C41.865,2.55,36.564,1.945,31.221,1.461L31.221,1.461z    M3.265,0.054l-0.031,3C8.509,3.109,13.843,3.287,19.088,3.58l0.168-2.995c-0.155-0.009-0.297-0.017-0.453-0.025   c-0.011-0.001-0.021-0.001-0.032-0.002c-0.02-0.001-0.05-0.002-0.067-0.004c-0.02-0.001-0.037-0.002-0.057-0.003   S18.61,0.549,18.59,0.548c-0.021-0.001-0.043-0.002-0.064-0.003c-0.02-0.001-0.033-0.002-0.054-0.003   c-0.022-0.001-0.046-0.002-0.069-0.004c-0.01,0-0.04-0.002-0.05-0.002c-0.022-0.001-0.046-0.002-0.068-0.004   c-0.021-0.001-0.032-0.001-0.053-0.002c-0.023-0.001-0.05-0.003-0.073-0.004c-0.021-0.001-0.022-0.001-0.042-0.002   c-0.027-0.001-0.056-0.003-0.082-0.004c-0.021-0.001-0.018-0.001-0.036-0.002c-0.03-0.001-0.061-0.003-0.09-0.004   c-0.011,0-0.021-0.001-0.031-0.002c-0.03-0.001-0.061-0.003-0.089-0.004c-0.011,0-0.024-0.001-0.034-0.002   c-0.031-0.001-0.063-0.003-0.095-0.005c-0.01,0-0.016,0-0.024-0.001c-0.034-0.002-0.068-0.003-0.103-0.005   c-0.011,0-0.01,0-0.02-0.001c-0.037-0.002-0.074-0.004-0.111-0.006h-0.01C12.711,0.249,8.002,0.104,3.265,0.054L3.265,0.054z"/>
</g>
</svg>