<?xml version="1.0" encoding="UTF-8"?>
<!DOCTYPE svg PUBLIC "-//W3C//DTD SVG 1.1//EN" "http://www.w3.org/Graphics/SVG/1.1/DTD/svg11.dtd">
<!-- Creator: CorelDRAW 2019 (64-Bit) -->
<svg xmlns="http://www.w3.org/2000/svg" xml:space="preserve" width="900px" height="700px" version="1.1" style="shape-rendering:geometricPrecision; text-rendering:geometricPrecision; image-rendering:optimizeQuality; fill-rule:evenodd; clip-rule:evenodd"
viewBox="0 0 900 700"
 xmlns:xlink="http://www.w3.org/1999/xlink"
 xmlns:xodm="http://www.corel.com/coreldraw/odm/2003">
 <defs>
  <style type="text/css">
   <![CDATA[
    .fil34 {fill:#030303}
    .fil13 {fill:#043B7B}
    .fil36 {fill:#090909}
    .fil18 {fill:#092747}
    .fil12 {fill:#0A3D7B}
    .fil11 {fill:#0B3B74}
    .fil29 {fill:#0E0E0E}
    .fil9 {fill:#163A67}
    .fil3 {fill:#173758}
    .fil7 {fill:#253B57}
    .fil6 {fill:#253C67}
    .fil17 {fill:#284459}
    .fil35 {fill:#293136}
    .fil24 {fill:#354856}
    .fil19 {fill:#3B638B}
    .fil33 {fill:#3E81B7}
    .fil5 {fill:#444444}
    .fil22 {fill:#47474A}
    .fil15 {fill:#486A96}
    .fil20 {fill:#4B4B4C}
    .fil25 {fill:#4E5A69}
    .fil2 {fill:#4F7198}
    .fil10 {fill:#514F4F}
    .fil21 {fill:#565659}
    .fil23 {fill:#615D5B}
    .fil1 {fill:#636363}
    .fil8 {fill:#6986A7}
    .fil4 {fill:#7595B5}
    .fil0 {fill:gray}
    .fil31 {fill:#8898A7}
    .fil16 {fill:#92B0CE}
    .fil14 {fill:#B9C8D7}
    .fil28 {fill:#DAF5F9}
    .fil26 {fill:#DBECF3}
    .fil30 {fill:#DCF2FB}
    .fil32 {fill:#F4F4F4}
    .fil27 {fill:#FCFCFB}
   ]]>
  </style>
 </defs>
 <rect class="fil0" width="900" height="700"/>
 <g id="Layer_x0020_1">
  <metadata id="CorelCorpID_0Corel-Layer"/>
  <g id="Text_x0020_as_x0020_Curves">
   <path class="fil1" d="M642.04 503c3.73,1.91 75.72,0.81 86.83,0.7l-0.24 -12.59c-4.23,10.88 5.34,9.94 -14.82,9.93l-50 0.01c-6.9,0 -20.2,-1.42 -21.77,1.95z"/>
   <path class="fil1" d="M724.63 423.52c-11.08,2.26 -52.86,0.78 -66.48,0.53l-0.89 16.07c0.78,5.5 -0.03,2.89 2.55,3.7 2.16,-3.96 0.84,-12.09 0.88,-17.08l61.17 0.04c5.2,-0.37 2.24,0.05 3.82,-1.06 1.27,-2.28 1.3,-8.76 0.13,-11.47l-1.18 9.27z"/>
   <path class="fil2" d="M283.26 443.98c3.75,19 -0.97,34.79 -16.2,40.49 -27.37,10.26 -35.99,-0.89 -47.06,-5.67 0.71,3.09 0.44,1.54 0.6,4.2l4.96 2.08c1.55,0.89 3.37,1.93 5.49,2.75 4.49,1.74 8.74,2.71 13.7,3.07 30.61,2.23 52.08,-22.73 40.55,-51.53 0.16,6.52 -1.14,3.86 -2.04,4.61z"/>
   <path class="fil2" d="M575.47 469.95l1.67 5.45c8.1,-0.76 5.21,-6.31 5.24,-28.4 0.01,-11.35 -0.57,-24.09 0.12,-35.22 7.21,0.06 8.86,0.54 15.61,-1.64 -0.23,-0.16 -0.63,-0.58 -0.78,-0.33l-18 -0.41 -0.26 62.85c-1.5,-0.86 -2.51,-1.55 -3.6,-2.3z"/>
   <path class="fil3" d="M369.05 526.54c-0.27,-3.92 1.86,-6.75 3.76,-9.71 0.17,0.18 0.42,0.43 0.52,0.55l4.28 9.35 -8.56 -0.19zm-11.13 11.28c8.99,-0.42 4.62,-2.02 8.89,-8.06l13.04 0.05c2.5,7.23 1.42,7.37 9.34,7.99 -1.5,-5.19 -4.54,-9.58 -6.86,-14.34 -2.1,-4.33 -4.22,-8.46 -6.28,-12.57l-5.79 0.44 -12.34 26.49z"/>
   <path class="fil3" d="M738.89 510.74c-7.42,0.93 -5.18,2.7 -5.14,11.26 0.02,5.12 -0.41,10.51 0.34,15.55l5.04 0.25 -0.24 -27.06z"/>
   <path class="fil4" d="M192.01 463.41c0.12,-23.35 9.3,-40.9 29.51,-48.62 10.3,-3.94 22.14,-5.42 34.24,-4.55 17.88,1.28 20.97,6.94 31.28,9.01l-2.76 -2.87c-15.74,-11.78 -54.67,-12.52 -75.99,3.11l-3.64 2.48c-0.17,0.12 -0.42,0.28 -0.59,0.41 -0.16,0.12 -0.41,0.28 -0.57,0.41 -0.22,0.17 -0.84,0.67 -1.04,0.86 -6.49,6.24 -11.32,18.66 -12.09,29.32l0.44 7.94c1.07,3.35 0.32,1.22 1.21,2.5z"/>
   <path class="fil4" d="M364.66 474.97c0.76,3.11 -0.92,1.52 2.15,2.8 1.59,-1.09 1.8,-0.7 3.16,-3.57l16.84 -46.63c5.96,-18.54 6.28,-16.17 17.02,-16.14 1.61,0 3.23,0.07 4.81,-0.3l4.6 -1.94c-0.26,-0.09 -0.65,-0.42 -0.8,-0.16l-9.63 0.08c-4.09,-0.02 -7.93,-0.1 -12,0.32 -2.4,4.79 -4.17,10.85 -5.95,15.66 -2.15,5.77 -4.33,11.14 -6.29,16.71 -3.83,10.91 -9.45,23.06 -12.12,33.94l-1.79 -0.77z"/>
   <path class="fil5" d="M376.86 501.02c-9.96,0.44 -12.4,-1.51 -13.85,1.98 4.31,1.89 12.94,0.64 18.26,0.56l17.63 -49.49c2.73,-7.78 5.01,-9.46 3.03,-18.47l-25.07 65.42z"/>
   <path class="fil5" d="M220.92 475.18c-1.51,-8.47 -3.65,-9.96 -2.81,-21.17 1,-13.51 7.31,-21.45 19.26,-26.45 3.04,-1.27 6.01,-1.76 9.71,-2.41l8.24 -1.79c0.16,-0.37 0.57,-0.25 0.81,-0.44 -26.7,-1.1 -43.88,7.25 -42.79,34.11 0.28,7.02 1.92,14.08 7.58,18.15z"/>
   <path class="fil5" d="M89.45 483.95l0.61 -55.96c1.15,-3.21 4.14,-1.84 12.75,-1.8 4.77,0.02 9.44,-0.06 14.21,-0.17 -3.77,-1.93 -17.08,-1.39 -23.24,-1.44l-7.5 1.03c-1.49,4.01 -1.53,51.62 -0.23,57.39l3.4 0.95z"/>
   <path class="fil6" d="M441.21 525.33l15.47 -0.1 0.55 12.41 5.36 -0.03 -0.04 -26.61c-8.49,0.18 -4.86,1.96 -5.85,10.77l-15.69 -0.1 -0.45 -10.83 -5.36 0.62 0.03 26.15 5.34 0.06 0.64 -12.34z"/>
   <path class="fil6" d="M595.27 537.6c3.89,0.19 7.65,0.11 11.54,0.12 11.81,0.05 8.53,0.78 10.57,-1.72 -1.58,-2.55 -0.34,-1.55 -3.51,-2.06l-12.94 0.1 -0.31 -23.27 -5.51 0.5 0.16 26.33z"/>
   <path class="fil7" d="M667.18 518c0.96,-2.61 0.42,-2.76 3.96,-3.57 1.51,-0.35 4.57,-0.21 6.06,0.28 7.27,2.42 -0.15,5.69 9.4,4.05 -0.09,-11.43 -22.3,-9.67 -24.39,-2.29 -3.49,12.29 19.14,5.46 20.31,15.43 -3.45,2.52 -7.29,3.52 -12.14,1.72 -7.43,-2.76 -0.75,-7.09 -9.19,-4.25 -2.34,10.09 19.93,11.1 24.92,4.88 7.67,-9.57 -8.72,-11.87 -12.68,-12.75 -4.69,-1.04 -4.66,-1.13 -6.25,-3.5z"/>
   <path class="fil7" d="M522.57 528.93c0.78,8.69 8.79,10.03 17.14,9 8.83,-1.1 14.31,-9.92 5.91,-13.82 -3.93,-1.82 -20.22,-2.29 -15.77,-7.94 1.6,-2.03 7.1,-2.48 10.03,-1.11 5.67,2.64 -0.03,4.89 8.61,3.78 -0.52,-11.65 -22.51,-9.72 -24.49,-2.54 -3.56,12.89 19.87,5.29 20.27,15.7 -3.31,2.47 -7.48,3.3 -12.06,1.71 -8.44,-2.93 1,-5.58 -9.64,-4.78z"/>
   <path class="fil7" d="M425.96 528.42c-11,0.74 -3.63,6.74 -15.14,6 -12.95,-0.83 -12.86,-20.34 0.96,-20.25 10,0.07 2.96,6.91 13.64,4.64 -2.33,-12.18 -29.92,-11.62 -29.64,6.2 0.25,16.44 27.89,17.71 30.18,3.41z"/>
   <path class="fil7" d="M817.96 528.47c-7.77,0.42 -3.06,-0.6 -7.16,3.52 -2.02,2.03 -2.87,2.51 -6.99,2.49 -5.79,-0.03 -9.48,-3.01 -10.15,-8.53 -0.77,-6.44 2.1,-10.33 7.67,-11.55 7.23,-1.58 8.25,1.73 11.52,5.42l4.7 -1.82c-4.21,-12.68 -31.13,-8.76 -29.56,7.81 1.53,16.31 27.47,16.22 29.97,2.66z"/>
   <path class="fil7" d="M343.26 537.49c1.63,-10.66 -1.58,-9.09 4.7,-16.37 2.91,-3.37 7.66,-6.98 8.47,-10.77 -5.52,2.42 -3.66,-1.38 -8.72,4.61 -2,2.37 -3.44,5.62 -7.02,7.1l-8.89 -11.12 -6.03 0.04c1.71,4.35 5.37,7.82 8.63,11.41 5.8,6.36 2.94,5.85 3.78,15.26l5.08 -0.16z"/>
   <path class="fil7" d="M471.31 513c1.88,1.19 -3.62,1.92 10.74,1.71l0.21 22.97 5.27 -0.19 0.19 -22.71 10.96 -0.21 -0.41 -4.12c-3.91,1.54 -15.8,0.3 -21.55,0.48 -5.05,0.15 -3.56,-0.7 -5.41,2.07z"/>
   <path class="fil8" d="M655.3 460.68c8.98,-2.88 49.51,0.54 63.13,-0.95 1.12,-4.57 0.89,-9.27 0.19,-13.93l-62.83 0.39 -0.47 -22.99 59.52 -0.09c9.58,0.21 6.64,-0.11 7.85,-1.74l-67.53 0.86c-1.83,3.96 -1.61,19.59 -0.37,21.77 -2.13,3.06 -2.11,1.25 -1.99,0.99 0.16,2.39 3.39,5.67 1.23,3.25 11.16,0.76 55.33,1.68 64.28,-1.4l-0.32 11.84 -48.18 -0.02c-7.8,0.08 -13.64,-1.49 -14.51,2.02z"/>
   <path class="fil8" d="M435.17 473.06l0.25 4.33c2.06,0.23 2.77,0.11 4.3,-1.41 0.13,-0.12 0.33,-0.34 0.44,-0.48l1.1 -2.62c2.85,-9.86 17.97,-59.94 20.07,-61.05l15.38 -1.08c0.27,-0.38 2.28,1.09 0.22,-2.37 -6.82,1.49 -14.47,-0.47 -19.2,2.62l-20.95 64.68c-1.05,-5.46 -0.03,-0.14 -1.61,-2.62z"/>
   <path class="fil9" d="M756.19 518.92c10.57,10.9 12.25,19.15 21.27,18.66 0.89,-5.37 1.59,-23.02 -0.65,-26.58l-3 0.13c-2.4,4.07 -0.68,13.29 -1.27,18.77l-13.56 -16.11c-3.34,-3.45 -2.82,-2.68 -8.32,-2.05l0.27 25.98 4.94 0.19 0.32 -18.99z"/>
   <path class="fil9" d="M571.03 516.28c2.19,2.17 4.42,7.58 5.2,10.28l-9.46 0.04 4.26 -10.32zm-6.25 13.49l13.09 0.35 4.15 7.64 5.89 -0.24 -14.11 -26.59 -5.21 0.36 -12.44 26.43 4.65 0.06 3.98 -8.01z"/>
   <path class="fil10" d="M165.06 473.22c3,-10.19 3.72,-27.49 -2.2,-35.28 1.62,15.48 4.09,19.71 -1.78,35.37 -3.24,8.63 -10.95,17 -18.87,21.09 -15.81,8.16 -34.96,6.96 -52.4,6.97l-15.07 0.02c-3.25,0.76 -2.08,-0.64 -2.87,2.24 24.27,-0.06 56.82,3.6 75.24,-7.31 7.83,-4.64 14.72,-12.12 17.95,-23.1z"/>
   <path class="fil10" d="M814.34 503.68c1.63,-7.45 0.33,-25.07 0.51,-33.76 0.13,-6.64 2.5,-7.02 5.96,-10.9l23.79 -27.25c3.16,-3.91 13.79,-13.79 14.97,-18.36 -5.4,0.92 -13.74,12.12 -17.36,16.03 -5.57,6.01 -11.23,11.73 -16.19,17.8 -15.04,18.38 -13.22,6.2 -13.21,37.76l-0.08 12c-0.96,6.74 1.1,-4.43 -0.4,1.69l-0.66 1.48c-4.42,2.41 -10.28,-0.33 -15.01,1.83 1.88,2.96 10.49,1.65 17.68,1.68z"/>
   <path class="fil10" d="M293.85 492.05c15.14,-12.86 19.37,-35.99 12.11,-49.92 0.1,12.76 2.79,15.8 -2.12,28.92 -5.61,14.99 -20.01,25.08 -34.84,28.9 -10.02,2.58 -18.75,2.44 -29.32,3.03 6.58,4.14 23.57,2.2 31.28,0.17 8.86,-2.34 16.94,-6.04 22.89,-11.1z"/>
   <path class="fil10" d="M449.38 503.6c5.13,-11.97 30.15,-84.85 30.6,-89.74 -1.44,1.08 -1.87,0.81 -3.43,5.02 -5.38,14.52 -25.89,74.67 -29.83,81.97 -4.64,0.48 -11.31,-0.64 -14.92,1.15 1.71,2.91 11.73,1.84 17.58,1.6z"/>
   <path class="fil11" d="M476.71 410.75l-15.38 1.08c-2.1,1.11 -17.22,51.19 -20.07,61.05l-1.1 2.62c-0.11,0.14 -0.31,0.36 -0.44,0.48 -1.53,1.52 -2.24,1.64 -4.3,1.41l-0.25 -4.33c-1.12,-7.67 -7.66,-24.52 -10.62,-31.73 -3.11,-7.56 -10.09,-25.08 -11.31,-32.14l-4.6 1.94c-1.58,0.37 -3.2,0.3 -4.81,0.3 -10.74,-0.03 -11.06,-2.4 -17.02,16.14l-16.84 46.63c-1.36,2.87 -1.57,2.48 -3.16,3.57 -3.07,-1.28 -1.39,0.31 -2.15,-2.8l-19.38 -65.6c-4.84,1.01 -15.54,2.51 -19.47,1.25l30.67 88.78 18.33 0.25c2.26,-3.39 24.55,-63.96 26.55,-71.17l26.06 71.02 18.3 0.19c4.59,-16.59 29.35,-79.66 30.99,-88.94z"/>
   <path class="fil11" d="M283.26 443.98c0.9,-0.75 2.2,1.91 2.04,-4.61 11.53,28.8 -9.94,53.76 -40.55,51.53 -4.96,-0.36 -9.21,-1.33 -13.7,-3.07 -2.12,-0.82 -3.94,-1.86 -5.49,-2.75l-4.96 -2.08c-0.16,-2.66 0.11,-1.11 -0.6,-4.2 -1.19,-3.28 -12.34,-10.17 -8.73,-31.57 6.41,-38.03 67.16,-32 71.99,-3.25zm-91.25 19.43c0.09,14.34 16.94,28.85 28.91,32.62 21.65,6.83 31.4,6.61 53.77,-0.11 24.72,-7.44 37.11,-36.02 25.82,-60.63 -2.6,-5.66 -8.22,-13.29 -13.47,-16.04 -10.31,-2.07 -13.4,-7.73 -31.28,-9.01 -12.1,-0.87 -23.94,0.61 -34.24,4.55 -20.21,7.72 -29.39,25.27 -29.51,48.62z"/>
   <path class="fil11" d="M636.81 499.64l88.74 -0.02 -0.2 -13.38c-11.26,2.06 -23.11,1.37 -35.54,1.38 -10.09,0 -26.25,1.73 -34.45,-1.05l-0.06 -25.89c0.87,-3.51 6.71,-1.94 14.51,-2.02l48.18 0.02 0.32 -11.84c-8.95,3.08 -53.12,2.16 -64.28,1.4 2.16,2.42 -1.07,-0.86 -1.23,-3.25 -0.12,0.26 -0.14,2.07 1.99,-0.99 -1.24,-2.18 -1.46,-17.81 0.37,-21.77l67.53 -0.86 0.45 -11.76 -3.59 0.62c-1.29,3.28 -12.03,1.94 -18.74,1.96 -12.32,0.05 -55.97,-1.29 -61.41,0.81 -1.36,11.59 -0.21,32.4 -0.24,45 -0.02,7.33 -0.04,14.66 0.03,22 0.03,3.37 0.27,7.68 0.1,10.92 -0.21,4.05 -1.5,4.18 -2.19,6.44 -1.5,4.92 -0.9,-0.58 -0.29,2.28z"/>
   <path class="fil11" d="M747.38 410.2c1.72,4.45 29.65,36 35.65,42.55 10.01,10.92 7.98,8.01 8.02,31.25l-0.09 15.58 18.66 0.19c1.96,-6.61 0.69,-24.89 0.67,-32.85 -0.02,-9.12 4.91,-10.01 13.35,-20.05l19.89 -22.2c1.67,-1.87 2.86,-2.58 4.62,-4.37 1.47,-1.5 2.32,-2.76 3.61,-4.27 2.5,-2.92 2.75,-1.89 4.03,-6.88 -12.84,2.29 -16.03,-1.34 -21.41,3.38 -2.27,1.99 -3.17,3.48 -5.07,6.03l-16.08 18.97c-1.89,2.62 -2.92,3.57 -4.96,5.9l-0.95 1.15c-2.11,2.74 -1.43,3.55 -5.51,4.09l-15.59 -19.12c-2.89,-3.46 -5.45,-6.22 -8.3,-9.66 -2.82,-3.41 -6.29,-6.78 -8.03,-9.89 -6.21,0.1 -15,1.11 -22.51,0.2z"/>
   <path class="fil12" d="M598.11 410.14c-6.75,2.18 -8.4,1.7 -15.61,1.64 -0.69,11.13 -0.11,23.87 -0.12,35.22 -0.03,22.09 2.86,27.64 -5.24,28.4l-1.67 -5.45c-2.04,-4.27 -48.89,-56.42 -52.66,-60.58l-18.85 0.22 0.18 90.02 17.58 0.19c2.49,-8.98 0.42,-51.69 0.71,-64.53l28.34 31.76c4.65,5.07 8.98,10.8 13.99,16.04 2.16,2.25 12.16,13.33 13.57,16.56l19.82 -0.13 -0.04 -89.36z"/>
   <path class="fil13" d="M141.77 449.42l1.47 6.54c0.03,11.33 -0.5,21.96 -14.16,28.31 -9.63,4.48 -32.65,4.52 -45.61,3.41l-0.92 -3.09c-4.59,2.17 -2.12,-0.2 -2.88,-0.84 2.29,-6.86 -2.13,-49.7 0.62,-62.2 8.22,-3.95 30.38,-2.6 41.22,-0.91 4.35,0.68 4.32,0.88 7.67,3.01 4.8,3.04 8.07,5.73 10.63,10.47 2.68,4.98 2.76,2.95 1.48,5.28 1.73,-4.42 -0.1,-1.12 -1.44,-2.4 0.93,4.58 2.79,7.89 1.92,12.42zm-78.33 47.02c0.29,2.49 0.38,1.84 1.37,3.07 14.82,0.73 37.34,0.89 52.02,-0.27 15.69,-1.24 28.16,-6.41 36.04,-16.16 8.21,-10.17 11.87,-26.11 8.07,-42.21 -2.38,-10.03 -14.34,-27.29 -24.67,-26.47 -0.74,0.13 -57.5,-5.85 -68.77,-1.61 -2.17,4.98 -0.8,70.52 -0.71,82.51l-3.35 1.14z"/>
   <path class="fil14" d="M82.55 484.59l0.92 3.09c12.96,1.11 35.98,1.07 45.61,-3.41 13.66,-6.35 14.19,-16.98 14.16,-28.31l-1.47 -6.54c-0.5,7.05 -0.94,14.32 -2.91,20.1 -1.29,3.81 -2.13,4.29 -3.94,6.68 -7.8,10.29 -32.27,10.49 -41.18,9.24 -4.54,-0.63 -1.83,0.28 -4.29,-1.49l-3.4 -0.95c-1.3,-5.77 -1.26,-53.38 0.23,-57.39l7.5 -1.03c6.16,0.05 19.47,-0.49 23.24,1.44 -4.77,0.11 -9.44,0.19 -14.21,0.17 -8.61,-0.04 -11.6,-1.41 -12.75,1.8 10.1,-0.66 30.44,2.57 37.25,-1.94l-4.27 -2.49c-1.82,-0.65 -3.03,-0.75 -5.04,-0.93l-35.37 -0.37 -0.08 62.33z"/>
   <path class="fil15" d="M63.44 496.44l3.35 -1.14c-0.09,-11.99 -1.46,-77.53 0.71,-82.51 11.27,-4.24 68.03,1.74 68.77,1.61 -1.62,-1.93 -2.04,-2.44 -6.69,-3.23 -9.87,-1.68 -64.77,-3.22 -65.19,0.26 -0.17,1.47 -1.14,-0.64 -0.98,8.56l0.03 76.45z"/>
   <path class="fil16" d="M725.55 499.62l-88.74 0.02 -1.19 -1.64c2.08,-9.67 0.87,-32.8 0.87,-44 0,-13.9 -0.64,-29.36 0.09,-43.04 2.27,1.95 -0.75,0.44 3.24,-0.02 15.85,-1.82 65.97,1.65 79.73,-0.71l3.59 -0.62c-2.05,-2.04 -6.17,-0.78 -11.33,-0.78 -15.5,0 -69.43,-1.03 -76.71,0.68l0.2 89.91c6.23,2.83 36.57,1.29 45.51,1.29l43.86 -0.75c0.18,-0.36 0.6,-0.2 0.88,-0.34z"/>
   <path class="fil17" d="M631.36 514.76c3.83,0 7.66,-0.03 11.49,0.04 9.68,0.16 7.02,0.11 8.31,-1.8 -1.67,-3.08 1.12,-1.97 -5.25,-2.13l-19.31 0.96c-1.85,5.14 -1.02,19.37 -0.44,25.86 4.55,0.05 9.09,0.03 13.65,0.05 10.46,0.04 10.24,1.41 11.94,-1.74 -1.28,-2.92 1.58,-1.55 -3.85,-2.09l-16.45 0.07 0.02 -8.19c8.21,-0.18 16.44,1.35 18.56,-1.79 -1.36,-2.88 0.02,-1.48 -3.2,-2.07l-15.32 0.1 -0.15 -7.27z"/>
   <path class="fil18" d="M82.55 484.59l0.08 -62.33 35.37 0.37c2.01,0.18 3.22,0.28 5.04,0.93l4.27 2.49c7.83,1.78 8.25,7.56 12.54,10.95 1.34,1.28 3.17,-2.02 1.44,2.4 1.28,-2.33 1.2,-0.3 -1.48,-5.28 -2.56,-4.74 -5.83,-7.43 -10.63,-10.47 -3.35,-2.13 -3.32,-2.33 -7.67,-3.01 -10.84,-1.69 -33,-3.04 -41.22,0.91 -2.75,12.5 1.67,55.34 -0.62,62.2 0.76,0.64 -1.71,3.01 2.88,0.84z"/>
   <path class="fil19" d="M636.81 499.64c-0.61,-2.86 -1.21,2.64 0.29,-2.28 0.69,-2.26 1.98,-2.39 2.19,-6.44 0.17,-3.24 -0.07,-7.55 -0.1,-10.92 -0.07,-7.34 -0.05,-14.67 -0.03,-22 0.03,-12.6 -1.12,-33.41 0.24,-45 5.44,-2.1 49.09,-0.76 61.41,-0.81 6.71,-0.02 17.45,1.32 18.74,-1.96 -13.76,2.36 -63.88,-1.11 -79.73,0.71 -3.99,0.46 -0.97,1.97 -3.24,0.02 -0.73,13.68 -0.09,29.14 -0.09,43.04 0,11.2 1.21,34.33 -0.87,44l1.19 1.64z"/>
   <path class="fil20" d="M509.85 503c4.37,1.83 12.25,0.61 17.49,0.61 1.29,-8.24 0.42,-23.61 0.42,-32.61 0,-11.17 1.68,-24.11 -2.35,-29.48 -3.09,12.21 2.18,51.34 -1.53,58.51 -3.14,3.43 -11.75,-1.68 -14.03,2.97z"/>
   <path class="fil21" d="M658.81 483.78c3.25,-3.97 1.66,-11.88 1.99,-20.2l61.49 -0.05 -1.46 -7.47c-0.62,4.5 1.23,5.3 -9,5.2 -6,-0.06 -12.02,-0.06 -18.02,-0.06 -11.88,0.01 -24.01,-0.2 -35.83,0.06l0.39 21.62c0.06,-0.14 0.27,0.62 0.44,0.9z"/>
   <path class="fil22" d="M365.7 467.89c3.7,-4.34 -7.14,-33.08 -8.98,-39.78 -0.62,-2.26 -1.24,-3.95 -1.87,-6.13 -2.46,-8.59 -1.41,-4.82 -3.64,-6.52 -1.46,4.49 10.98,44 14.49,52.43z"/>
   <path class="fil23" d="M581.77 502c1.86,1.19 -2.66,1.54 10.04,1.72 11.5,0.17 8.51,0.77 9.42,-2.72 -0.2,-0.09 -0.48,-0.23 -0.6,-0.25 -0.19,-0.03 -16.65,0.01 -18.86,1.25z"/>
   <path class="fil24" d="M699.41 539.69l-0.81 3.34c5.32,-1.78 5.7,-3.02 4.85,-9.72 -9.08,0.15 -3.97,2.47 -4.04,6.38z"/>
   <path class="fil25" d="M833.59 537.73l-0.13 -4.61c-5.16,0.29 -5.31,-0.71 -5.65,3.88 2.57,1.27 2.16,0.83 5.78,0.73z"/>
  </g>
  <g id="Sportfish">
   <path class="fil26" d="M116.8 370.74c3.75,1.45 6.69,3.09 11.55,3.64l-0.27 -10.89c-7.73,-4.59 0.24,-5.68 -5.43,-8.22 -1.83,-0.82 -3.91,-0.8 -5.84,-0.89 -1.41,3.69 -0.11,11.21 -0.01,16.36z"/>
   <path class="fil26" d="M307.29 352.08c-1.57,-4.55 -1.33,-2.02 0.12,-6.79l-7.13 1.3c-4.94,-0.22 -20.14,3.21 -24.19,5.34l31.2 0.15z"/>
   <path class="fil27" d="M237.68 347l0.13 4.77c11.15,-0.06 23.32,1.18 33.98,-2.03 58.59,-17.66 159.62,-21.94 220.05,-26.63 58.66,-4.55 144.29,-5.05 206.97,-6.17 22.42,-0.4 46.38,-0.14 68.62,-1.53 -22.4,-3.95 -95.86,-4.58 -122.62,-4.87l-111.06 -0.62c-7.35,-0.15 -6.63,-2.82 -13.94,-1.74 -19.42,6.7 -67.2,5.24 -92,6.2 -31.62,1.24 -63.34,3 -94.84,4.08 0.32,2.31 0.14,1.25 1.51,2.86 0.19,0.22 2.57,2.33 2.67,2.4 3.67,2.92 1.9,1.24 4.62,2.28 -1.1,3.37 -1.9,3.6 -3.96,6.03 -0.85,-1.83 0.32,-1.84 -1.73,-4.3 -0.64,-0.77 -2.82,-2.48 -3.7,-3.27 -3.1,-2.81 -4,-4.93 -9.49,-5.09 -8.8,-0.26 -20.76,4 -24.44,-4.37 -0.12,-3.39 6.91,-6.06 8.41,-6.86 1.94,-1.04 0.18,-0.02 1.89,-1.18l1.13 -0.96c-5.06,-5.56 -23.71,-18.87 -26.08,-23.21l-37.66 1.5 -1.11 9.32c10.29,2.6 22.17,2.21 30.65,7.39 1.89,9.14 -12.32,21.07 -16.87,24.99 -19.32,16.69 -18.22,7.4 -21.13,21.01z"/>
   <path class="fil27" d="M485.4 285.02c-6.92,-1.66 -12.39,-4.58 -21.21,-6.48 -7.88,-1.69 -17.78,-0.83 -26.38,-0.9 -18.37,-0.15 -36.64,0.15 -55,0.34 -16.01,0.6 -32.55,0.53 -47.96,1.21 -14.91,0.66 -32.73,0.39 -47.37,2.54 0.69,1.91 19.33,15.63 23.47,19.12 4.23,3.56 4.38,3.87 10.69,2.25 52.54,-13.53 110.71,-11.26 164.6,-15.67l-0.84 -2.41z"/>
   <path class="fil28" d="M426.68 330.23c-6.04,2.42 -13.88,1.07 -20.27,3.09 11.03,-0.25 39.67,-3.91 48.48,-2.18 -2.05,5.88 -13.54,16.46 -14.81,17.18 -1.82,1.03 -5.32,1.32 -6.79,4.2l224.62 0.48c-0.22,0.17 -0.54,0.32 -0.72,0.39 -0.18,0.07 -0.5,0.28 -0.74,0.35 -5.64,1.9 4.95,-0.73 -1.66,0.49l-340.98 -0.18c-38.64,-0.18 -76.7,1.15 -115,1.09l-67.31 1.25c1.01,8.68 -0.17,3.11 -2.15,7.18 -1.32,2.73 -0.51,7.2 -1,10.58 17.36,1.7 126.69,-0.07 154.46,-0.07l423 -1.19c4.53,-0.03 31.29,1.11 34.76,-1.16l1.63 -1.53 50.51 -53.23 -276.87 8.12c-15.01,0.53 -30.04,2.34 -45.02,2.68 -15.34,0.35 -29.11,1.14 -44.14,2.46z"/>
   <path class="fil29" d="M243.98 297.12c8.19,1.04 20.01,2.36 26.42,5.88 0.84,9.38 -26.36,31.26 -31.83,33.04l5.41 -38.92zm-20.46 -9.12c3.45,-4.14 11.85,-3.81 18,-3.51l-1.13 8.2c-3.01,-0.02 -6.25,-0.49 -9.06,-1.09 -4.12,-0.88 -5.54,-1.41 -7.81,-3.6zm51.29 -12c2.46,1.76 1.88,0.64 3.25,3.95l-7.59 -0.17 4.34 -3.78zm-25.27 -21.38c3.45,2.12 20.49,16.29 22.37,19.38 -7.84,9.2 -11.21,6.73 -25.64,7.51l3.27 -26.89zm149.27 -28.42c5.83,0.56 23.37,23.53 23.47,24.13 -12.85,1.03 -27.88,0.35 -40.81,1.08 -39.92,2.24 -70.69,5.11 -105.66,20.31 -4.9,-2.89 -14.7,-12.53 -19.55,-17.17 -4.36,-4.17 -6.5,-3.61 -5.46,-11.54 0.67,-5.07 0.82,-11.17 2.61,-15.52l145.4 -1.29zm-140.08 -6.17c1.21,-3.86 25.47,-33.24 30.4,-39.69 2.75,-3.59 27.46,-35.54 30.68,-37.92l19.13 19.45c7.88,8.54 53.71,54.37 56.68,59.15 -10.02,1.37 -27.95,0.09 -38.81,-0.01 -6.67,-0.05 -13.35,-0.14 -20.03,-0.14 -5.66,0 -6.67,0.28 -11.73,-2.1l-2.96 -1.77c1.11,-2.08 11.92,-3.45 3.68,-9.1 -9.56,-6.56 -16.99,0.94 -15.67,4.75 1.9,5.53 2.96,0.1 6.04,4.71l-57.41 2.67zm-3.47 -2.32c-0.54,-6.05 8.88,-74.97 10.8,-84.8l43.75 0.04c2.27,2.39 4.88,4.76 6.6,7.05 -1.42,3.53 -11.58,15.87 -14.67,19.91 -5.24,6.86 -9.76,12.75 -15.33,19.72 -5.28,6.61 -10.39,13.21 -15.61,19.36l-15.54 18.72zm17.23 -111.09c13.19,-2.68 12.39,10.5 11.49,22l-11.78 0.07 0.29 -22.07zm18.91 13.72c0.95,1.26 2.19,2.47 3.47,3.69 2.93,2.78 1.12,1.9 6.05,2.34 -1.17,-4.12 -1.64,-2.91 -3.18,-6.68 3.81,2.33 6.68,5.3 7.91,8.52l-14.16 -0.29 -0.09 -7.58zm3.22 -16.19c3.22,2.22 1.03,0.07 2.55,3.04l-5.72 0.11 -0.16 -4.99c1.55,1.01 2.14,1.03 3.33,1.84zm13.28 2.08c-3.32,0.07 -5.9,-0.44 -8.6,-1.71 -3.5,-1.65 -3.41,-1.35 -4.86,-4.59 7.81,-0.47 11.18,1.31 13.46,6.3zm-57.65 -35.83c-2.34,-1.69 -1.55,-0.61 -2.47,-3.5l3.99 0.41c-0.49,1.79 -0.82,1.92 -1.52,3.09zm489.34 306.75c-2.33,-1.92 1.28,-0.43 -1.32,-0.28 -0.21,0.01 -0.88,0.17 -1.15,0.22 -7.07,1.27 -6.75,0.7 -14.31,0.72l-138 -0.11c-52.21,-0.17 -104.83,-0.83 -157,0.07 -77.09,1.33 -159.27,1 -237,0.92 -19.38,-0.03 -59.59,2.79 -73.98,-2.73l-0.03 -5.22c-0.1,-5.15 -1.4,-12.67 0.01,-16.36 1.93,0.09 4.01,0.07 5.84,0.89 5.67,2.54 -2.3,3.63 5.43,8.22l0.27 10.89 0 -0.23c0.49,-3.38 -0.32,-7.85 1,-10.58 1.98,-4.07 3.16,1.5 2.15,-7.18l67.31 -1.25c4.77,-2.74 12.95,-2.12 19,-2.15 7.25,-0.02 11.03,0.58 18,0.2 0.64,-2.1 0.01,-3.46 1.87,-6.19 2.91,-13.61 1.81,-4.32 21.13,-21.01 4.55,-3.92 18.76,-15.85 16.87,-24.99 -8.48,-5.18 -20.36,-4.79 -30.65,-7.39l1.11 -9.32 37.66 -1.5c-2.08,-1.54 0.42,-0.71 -3.95,-1.71 -1.31,-0.3 -7.55,-0.94 -9.23,0.91l7.19 0 3.72 -3.37 -3.3 -4.62c4.76,-6.45 30.52,-13.16 40.5,-14.54 21.26,-2.94 83.11,-8.94 103.07,-6.52 3.98,0.48 20.53,16.22 31.64,22.81l-53.63 0.25c-3.01,0 -6.03,-0.1 -9.01,-0.11 -7.76,-0.04 -6.68,0.54 -7.99,2.09 18.36,-0.19 36.63,-0.49 55,-0.34 8.6,0.07 18.5,-0.79 26.38,0.9 8.82,1.9 14.29,4.82 21.21,6.48 1.95,0.64 -1.78,-0.1 1.83,0.92 2.11,0.59 -1.4,0.61 3.45,0.52 -4.12,-4.71 -19.34,-9.16 -24.94,-10.48 -12.89,-3.02 -31.16,-19.44 -40.43,-29.53l-16.69 -18.45c1.19,-1.04 -0.7,-0.15 2.71,-1.55 0.86,-0.36 2.08,-0.64 2.95,-0.91 3.14,-1 4.16,-0.8 5.55,-3.54l-10.02 -0.75c-0.05,-0.09 0,-0.53 0.01,-0.43l0.66 -4.59 -7.23 0.15c-1.42,7.28 2.02,0.68 0.56,4.83l-53.59 -52.62c-10.05,-10.87 -17.58,-17.86 -26.41,-27.57 -5.32,-5.85 -7.57,-9.06 -12.9,-14.14 -5.17,-4.94 -10.82,-9.09 -11.4,-16.16 9.75,0.07 1.6,1.79 8.3,1.99 2.58,-6.42 2.41,-2.61 3.59,-6.56 -1.55,-2.49 -4.6,-5.21 -6.77,-7.15 1.07,-11.53 -0.71,-4.98 -9.11,-7.83 -4.27,-1.45 2.6,-1.53 -4.71,-2.18 -1.13,1.94 -0.38,4.71 -7.16,7.71 -3.57,1.58 -9.59,1.36 -13.84,1 -20.17,-26.92 -25.61,-29.5 0,-29.4 6.94,0.03 13.66,1.97 15.51,-3.79l-19.54 -0.14 -0.16 -11.38c-4.78,-2.95 -7.52,-2.69 -13.98,-2.13 -2.89,3.69 -2.61,5.97 -2.34,12.14l-5.3 2c-0.11,4.01 1.7,4.64 4.09,7.73 1.68,2.18 3.52,4.77 5.16,6.85 14.35,18.12 12.76,19.03 10.9,33.61 -0.93,7.32 -1.69,14.23 -2.7,21.47l-11.37 84.64 -14.83 0.32c-1.43,7.98 -2.95,2.56 -4.43,8.58l17.59 0.24 -1.53 16.95c-3.74,-1.7 -31.44,-26.9 -37.53,-31.93 -12.78,-10.55 -110.97,-90.92 -116.2,-92.36 8.98,10.58 109.39,89.82 133.52,113.05 6.08,5.85 12.63,10.15 18.92,16.85l-3.6 30.75c-9.11,1.42 -20.14,-0.83 -22.69,7.25 2.11,3.25 4.79,4.36 9,5.69 2.11,0.66 3.67,0.85 5.51,1.26l3.88 1.2c0.24,0.11 0.58,0.32 0.78,0.41 0.2,0.1 0.54,0.27 0.79,0.44l-6.76 50.42c-8.06,2.75 -102.6,4.06 -117.35,3.74l-0.07 25.66c-6.31,-0.05 -11.6,0.25 -17.31,0.56l-14.87 0.78c-3.07,0.63 -1.03,0.03 -2.56,0.84 1.57,2.58 2.33,2.02 9.45,1.92l167.02 0.07c59.66,0.21 119.34,0.04 179,0.15 36,0.06 350.1,1.78 356.13,-1.14 -1.93,-2.93 -2.86,-1.61 -12.13,-1.59l-35.14 0.12c-5.72,-0.31 -4.31,0.82 -5.08,-2.38z"/>
   <path class="fil30" d="M308.97 349c5.74,1.63 67.95,0.33 78.84,0.09 12.85,-0.27 26.05,-0.5 39.04,-0.49 9.08,0.01 9.19,0.05 14.49,-5.01 4.2,-4.02 6.01,-7.22 9.7,-10.59 -11.5,1.3 -23.99,0.4 -36.26,2.14 -12.26,1.74 -24.23,1.85 -36.41,3.37 -11.41,1.43 -25.18,2.4 -36.04,4.28 -5.98,1.03 -11.3,2.1 -17.35,2.64 -4.61,0.4 -13.97,-0.42 -16.01,3.57z"/>
   <path class="fil31" d="M308.97 349c2.04,-3.99 11.4,-3.17 16.01,-3.57 6.05,-0.54 11.37,-1.61 17.35,-2.64 10.86,-1.88 24.63,-2.85 36.04,-4.28 12.18,-1.52 24.15,-1.63 36.41,-3.37 12.27,-1.74 24.76,-0.84 36.26,-2.14 -3.69,3.37 -5.5,6.57 -9.7,10.59 -5.3,5.06 -5.41,5.02 -14.49,5.01 -12.99,-0.01 -26.19,0.22 -39.04,0.49 -10.89,0.24 -73.1,1.54 -78.84,-0.09zm-8.69 -2.41l7.13 -1.3c-1.45,4.77 -1.69,2.24 -0.12,6.79l126 0.44c1.47,-2.88 4.97,-3.17 6.79,-4.2 1.27,-0.72 12.76,-11.3 14.81,-17.18 -8.81,-1.73 -37.45,1.93 -48.48,2.18 6.39,-2.02 14.23,-0.67 20.27,-3.09l-50.83 3.96c-11.31,1.41 -70.59,8.8 -75.57,12.4z"/>
   <path class="fil32" d="M223.52 288c2.27,2.19 3.69,2.72 7.81,3.6 2.81,0.6 6.05,1.07 9.06,1.09l1.13 -8.2c-6.15,-0.3 -14.55,-0.63 -18,3.51z"/>
   <path class="fil33" d="M739.59 377.15l6.57 -2.15c-0.88,-2.6 0.11,-1.35 -1.87,-2 -2.97,-0.47 -2.69,2.75 -2.09,-2.8l-1.63 1.53c-3.47,2.27 -30.23,1.13 -34.76,1.16l-423 1.19c-27.77,0 -137.1,1.77 -154.46,0.07l0 0.23c-4.86,-0.55 -7.8,-2.19 -11.55,-3.64l0.03 5.22c14.39,5.52 54.6,2.7 73.98,2.73 77.73,0.08 159.91,0.41 237,-0.92 52.17,-0.9 104.79,-0.24 157,-0.07l138 0.11c7.56,-0.02 7.24,0.55 14.31,-0.72 0.27,-0.05 0.94,-0.21 1.15,-0.22 2.6,-0.15 -1.01,-1.64 1.32,0.28z"/>
   <path class="fil34" d="M281.53 278.62l-3.72 3.37 -7.19 0c1.68,-1.85 7.92,-1.21 9.23,-0.91 4.37,1 1.87,0.17 3.95,1.71 2.37,4.34 21.02,17.65 26.08,23.21l-1.13 0.96c-1.71,1.16 0.05,0.14 -1.89,1.18 -1.5,0.8 -8.53,3.47 -8.41,6.86 3.68,8.37 15.64,4.11 24.44,4.37 5.49,0.16 6.39,2.28 9.49,5.09 0.88,0.79 3.06,2.5 3.7,3.27 2.05,2.46 0.88,2.47 1.73,4.3 2.06,-2.43 2.86,-2.66 3.96,-6.03 -2.72,-1.04 -0.95,0.64 -4.62,-2.28 -0.1,-0.07 -2.48,-2.18 -2.67,-2.4 -1.37,-1.61 -1.19,-0.55 -1.51,-2.86 31.5,-1.08 63.22,-2.84 94.84,-4.08 24.8,-0.96 72.58,0.5 92,-6.2l3.49 -3.34c-3.69,-2.83 -26.52,-17.36 -32.62,-18.38 -4.85,0.09 -1.34,0.07 -3.45,-0.52 -3.61,-1.02 0.12,-0.28 -1.83,-0.92l0.84 2.41c-53.89,4.41 -112.06,2.14 -164.6,15.67 -6.31,1.62 -6.46,1.31 -10.69,-2.25 -4.14,-3.49 -22.78,-17.21 -23.47,-19.12 14.64,-2.15 32.46,-1.88 47.37,-2.54 15.41,-0.68 31.95,-0.61 47.96,-1.21 1.31,-1.55 0.23,-2.13 7.99,-2.09 2.98,0.01 6,0.11 9.01,0.11l53.63 -0.25c-13.07,0.98 -29.93,-0.21 -43.63,-0.17 -14.49,0.04 -29.16,0.76 -42.98,0.73 -13.12,-0.02 -80.14,3.43 -85.3,2.31z"/>
   <path class="fil35" d="M519.81 308.18c7.31,-1.08 6.59,1.59 13.94,1.74l111.06 0.62c26.76,0.29 100.22,0.92 122.62,4.87 -22.24,1.39 -46.2,1.13 -68.62,1.53 -62.68,1.12 -148.31,1.62 -206.97,6.17 -60.43,4.69 -161.46,8.97 -220.05,26.63 -10.66,3.21 -22.83,1.97 -33.98,2.03l-0.13 -4.77c-1.86,2.73 -1.23,4.09 -1.87,6.19 -6.97,0.38 -10.75,-0.22 -18,-0.2 -6.05,0.03 -14.23,-0.59 -19,2.15 38.3,0.06 76.36,-1.27 115,-1.09l340.98 0.18c6.61,-1.22 -3.98,1.41 1.66,-0.49 0.24,-0.07 0.56,-0.28 0.74,-0.35 0.18,-0.07 0.5,-0.22 0.72,-0.39l-224.62 -0.48 -126 -0.44 -31.2 -0.15c4.05,-2.13 19.25,-5.56 24.19,-5.34 4.98,-3.6 64.26,-10.99 75.57,-12.4l50.83 -3.96c15.03,-1.32 28.8,-2.11 44.14,-2.46 14.98,-0.34 30.01,-2.15 45.02,-2.68l276.87 -8.12 -50.51 53.23c-0.6,5.55 -0.88,2.33 2.09,2.8 2.47,-4.55 42.58,-46.62 47.18,-50.32 3.88,-3.13 6.21,-2.56 6.25,-7.68 -11.89,-5.24 -115.64,-6.99 -134.91,-7.1l-124.01 0.03c-10.6,0.19 -7.65,-0.32 -15.5,-3.09l-3.49 3.34z"/>
   <path class="fil36" d="M345.75 204.18c-0.31,-3 -0.58,-5.62 -7.9,-4.23 -3.96,0.75 -0.5,-0.01 -2.42,1.05l0.34 4.37 9.98 -1.19z"/>
  </g>
 </g>
</svg>
