<?xml version="1.0" encoding="UTF-8"?>
<!DOCTYPE svg PUBLIC "-//W3C//DTD SVG 1.1//EN" "http://www.w3.org/Graphics/SVG/1.1/DTD/svg11.dtd">
<!-- Creator: CorelDRAW 2019 (64-Bit) -->
<svg xmlns="http://www.w3.org/2000/svg" xml:space="preserve" width="1200px" height="1200px" version="1.1" style="shape-rendering:geometricPrecision; text-rendering:geometricPrecision; image-rendering:optimizeQuality; fill-rule:evenodd; clip-rule:evenodd"
viewBox="0 0 1200 1200"
 xmlns:xlink="http://www.w3.org/1999/xlink"
 xmlns:xodm="http://www.corel.com/coreldraw/odm/2003">
 <defs>
  <style type="text/css">
   <![CDATA[
    .fil0 {fill:#5B5B5B;fill-rule:nonzero}
   ]]>
  </style>
 </defs>
 <g id="Layer_x0020_1">
  <metadata id="CorelCorpID_0Corel-Layer"/>
  <g id="_3012359622560">
   <g>
    <g>
     <g>
      <path class="fil0" d="M634.59 650.15c-1.2,0 -2.19,-1 -2.19,-2.2l0 -17.73c0,-1.19 0.99,-2.18 2.19,-2.18 1.22,0 2.2,0.99 2.2,2.18l0 17.73c0,1.2 -0.98,2.2 -2.2,2.2z"/>
     </g>
    </g>
   </g>
   <g>
    <g>
     <g>
      <path class="fil0" d="M635.9 696.08c-1.2,0 -2.18,-0.99 -2.2,-2.19l-0.28 -34.14c-0.01,-1.25 0.97,-2.24 2.17,-2.24l0.02 0c1.21,0 2.18,0.96 2.19,2.18l0.29 34.17c0.01,1.2 -0.98,2.22 -2.18,2.22l-0.01 0z"/>
     </g>
    </g>
   </g>
   <g>
    <g>
     <g>
      <path class="fil0" d="M636.12 719.15c-1.2,0 -2.19,-0.97 -2.19,-2.19l0 -16.88c0,-1.22 0.99,-2.22 2.19,-2.22 1.21,0 2.19,1 2.19,2.22l0 16.88c0,1.22 -0.98,2.19 -2.19,2.19z"/>
     </g>
    </g>
   </g>
   <g>
    <g>
     <g>
      <path class="fil0" d="M657.27 721.39c-1.09,0 -2.03,-0.82 -2.17,-1.93l-11.17 -87.96c-0.15,-1.14 0.71,-2.27 1.91,-2.41 1.22,-0.13 2.29,0.68 2.43,1.88l11.19 87.91c0.14,1.22 -0.71,2.33 -1.91,2.48 -0.1,0 -0.19,0.03 -0.28,0.03z"/>
     </g>
    </g>
   </g>
   <g>
    <g>
     <g>
      <path class="fil0" d="M662.2 751.86c-1.08,0 -2,-0.75 -2.17,-1.84l-3.06 -18.92c-0.2,-1.17 0.61,-2.34 1.81,-2.51 1.21,-0.23 2.32,0.66 2.52,1.8l3.05 18.92c0.2,1.19 -0.61,2.32 -1.81,2.52 -0.11,0.03 -0.23,0.03 -0.34,0.03z"/>
     </g>
    </g>
   </g>
   <g>
    <g>
     <g>
      <path class="fil0" d="M669.86 674.68c-0.98,0 -1.87,-0.65 -2.12,-1.65l-10.92 -42.33c-0.3,-1.16 0.4,-2.39 1.57,-2.69 1.18,-0.28 2.37,0.44 2.67,1.62l10.91 42.31c0.32,1.17 -0.38,2.38 -1.56,2.68 -0.2,0.03 -0.37,0.06 -0.55,0.06z"/>
     </g>
    </g>
   </g>
   <g>
    <g>
     <g>
      <path class="fil0" d="M687.24 743.68c-0.98,0 -1.86,-0.65 -2.12,-1.63l-15.4 -58.49c-0.31,-1.2 0.38,-2.38 1.57,-2.69 1.17,-0.33 2.36,0.39 2.65,1.55l15.4 58.5c0.34,1.19 -0.37,2.36 -1.55,2.67 -0.19,0.06 -0.37,0.09 -0.55,0.09z"/>
     </g>
    </g>
   </g>
   <g>
    <g>
     <g>
      <path class="fil0" d="M678.55 642.48c-0.88,0 -1.71,-0.53 -2.05,-1.41l-5.14 -13.34c-0.45,-1.15 0.12,-2.4 1.24,-2.86 1.12,-0.43 2.4,0.15 2.83,1.27l5.17 13.39c0.42,1.09 -0.12,2.39 -1.26,2.81 -0.26,0.09 -0.54,0.14 -0.79,0.14z"/>
     </g>
    </g>
   </g>
   <g>
    <g>
     <g>
      <path class="fil0" d="M692.34 677.25c-0.84,0 -1.66,-0.54 -2.01,-1.34l-10.74 -25.57c-0.47,-1.13 0.07,-2.42 1.17,-2.86 1.12,-0.45 2.39,0.06 2.88,1.17l10.73 25.56c0.46,1.1 -0.05,2.39 -1.17,2.85 -0.28,0.13 -0.56,0.19 -0.86,0.19z"/>
     </g>
    </g>
   </g>
   <g>
    <g>
     <g>
      <path class="fil0" d="M703.08 708.4c-0.86,0 -1.68,-0.48 -2.02,-1.35l-7.17 -17.37c-0.45,-1.13 0.07,-2.4 1.2,-2.87 1.13,-0.44 2.4,0.09 2.86,1.22l7.16 17.38c0.46,1.09 -0.08,2.4 -1.2,2.84 -0.27,0.12 -0.55,0.15 -0.83,0.15z"/>
     </g>
    </g>
   </g>
   <g>
    <g>
     <g>
      <path class="fil0" d="M728.62 703.29c-0.79,0 -1.53,-0.43 -1.93,-1.16l-40.28 -77.48c-0.55,-1.06 -0.14,-2.4 0.94,-2.94 1.07,-0.56 2.39,-0.14 2.95,0.94l40.27 77.46c0.56,1.09 0.15,2.38 -0.93,2.95 -0.32,0.17 -0.67,0.23 -1.02,0.23z"/>
     </g>
    </g>
   </g>
   <g>
    <g>
     <g>
      <path class="fil0" d="M740.39 728.86c-0.82,0 -1.6,-0.47 -1.97,-1.25l-8.18 -16.87c-0.53,-1.08 -0.07,-2.37 1.01,-2.9 1.1,-0.54 2.41,-0.06 2.94,1l8.16 16.88c0.53,1.06 0.07,2.39 -1.01,2.9 -0.31,0.14 -0.63,0.24 -0.95,0.24z"/>
     </g>
    </g>
   </g>
   <g>
    <g>
     <g>
      <path class="fil0" d="M744.47 688.47c-0.72,0 -1.42,-0.33 -1.85,-0.99l-43.43 -67.98c-0.66,-1.06 -0.35,-2.42 0.66,-3.03 1.02,-0.68 2.38,-0.36 3.02,0.64l43.46 68.01c0.63,1 0.34,2.36 -0.68,3.02 -0.36,0.23 -0.77,0.33 -1.18,0.33z"/>
     </g>
    </g>
   </g>
   <g>
    <g>
     <g>
      <path class="fil0" d="M759.8 709.43c-0.7,0 -1.39,-0.32 -1.82,-0.97l-6.13 -9.2c-0.66,-1.01 -0.4,-2.37 0.61,-3.02 1,-0.7 2.36,-0.43 3.05,0.59l6.12 9.2c0.67,1.02 0.4,2.37 -0.61,3.05 -0.38,0.24 -0.79,0.35 -1.22,0.35z"/>
     </g>
    </g>
   </g>
   <g>
    <g>
     <g>
      <path class="fil0" d="M749.58 653.22c-0.63,0 -1.28,-0.27 -1.71,-0.82l-16.86 -20.98c-0.75,-0.92 -0.61,-2.3 0.33,-3.08 0.95,-0.72 2.33,-0.58 3.1,0.37l16.85 20.92c0.77,0.98 0.61,2.35 -0.33,3.11 -0.41,0.34 -0.89,0.48 -1.38,0.48z"/>
     </g>
    </g>
   </g>
   <g>
    <g>
     <g>
      <path class="fil0" d="M765.95 672.64c-0.59,0 -1.17,-0.25 -1.61,-0.7l-7.21 -7.76c-0.83,-0.84 -0.78,-2.24 0.11,-3.11 0.88,-0.77 2.26,-0.72 3.09,0.15l7.22 7.71c0.82,0.9 0.77,2.32 -0.1,3.09 -0.43,0.44 -0.98,0.62 -1.5,0.62z"/>
     </g>
    </g>
   </g>
   <g>
    <g>
     <g>
      <path class="fil0" d="M786.39 660.38c-0.56,0 -1.13,-0.23 -1.55,-0.63l-57.08 -56.54c-0.87,-0.88 -0.87,-2.28 -0.02,-3.1 0.85,-0.87 2.23,-0.87 3.1,-0.03l57.09 56.53c0.86,0.87 0.87,2.25 0.02,3.11 -0.43,0.43 -1,0.66 -1.56,0.66z"/>
     </g>
    </g>
   </g>
   <g>
    <g>
     <g>
      <path class="fil0" d="M805.17 678.9c-0.56,0 -1.1,-0.19 -1.55,-0.62l-8.17 -8.18c-0.86,-0.86 -0.86,-2.26 0,-3.09 0.87,-0.88 2.26,-0.88 3.11,0l8.17 8.16c0.85,0.85 0.85,2.25 0,3.11 -0.43,0.43 -0.99,0.62 -1.56,0.62z"/>
     </g>
    </g>
   </g>
   <g>
    <g>
     <g>
      <path class="fil0" d="M828.23 660.82c-0.47,0 -0.95,-0.19 -1.35,-0.47l-41.41 -32.7c-0.95,-0.77 -1.1,-2.12 -0.36,-3.11 0.76,-0.92 2.14,-1.1 3.09,-0.36l41.39 32.7c0.95,0.79 1.11,2.14 0.36,3.1 -0.43,0.54 -1.07,0.84 -1.72,0.84z"/>
     </g>
    </g>
   </g>
   <g>
    <g>
     <g>
      <path class="fil0" d="M774.73 619.06c-0.47,0 -0.95,-0.16 -1.36,-0.47l-34.54 -27.22c-0.97,-0.77 -1.11,-2.14 -0.36,-3.1 0.74,-0.94 2.12,-1.13 3.07,-0.36l34.56 27.25c0.94,0.76 1.1,2.12 0.36,3.08 -0.44,0.52 -1.08,0.82 -1.73,0.82z"/>
     </g>
    </g>
   </g>
   <g>
    <g>
     <g>
      <path class="fil0" d="M789.39 603.74c-0.39,0 -0.79,-0.11 -1.15,-0.33l-40.61 -25.13c-1.03,-0.61 -1.35,-1.98 -0.72,-3.02 0.64,-0.99 2,-1.33 3.02,-0.7l40.61 25.13c1.02,0.62 1.36,1.99 0.71,2.98 -0.42,0.71 -1.12,1.07 -1.86,1.07z"/>
     </g>
    </g>
   </g>
   <g>
    <g>
     <g>
      <path class="fil0" d="M820.51 624.18c-0.4,0 -0.8,-0.11 -1.16,-0.33l-22.89 -14.43c-1.03,-0.63 -1.34,-1.96 -0.7,-3.01 0.65,-1.03 2,-1.34 3.02,-0.69l22.89 14.41c1.03,0.64 1.34,1.99 0.7,3.04 -0.42,0.65 -1.12,1.01 -1.86,1.01z"/>
     </g>
    </g>
   </g>
   <g>
    <g>
     <g>
      <path class="fil0" d="M825.74 596.98c-0.32,0 -0.63,-0.06 -0.94,-0.2l-68.13 -32.16c-1.09,-0.52 -1.55,-1.83 -1.04,-2.92 0.52,-1.09 1.83,-1.57 2.92,-1.06l68.13 32.2c1.08,0.51 1.55,1.79 1.03,2.92 -0.37,0.77 -1.16,1.22 -1.97,1.22z"/>
     </g>
    </g>
   </g>
   <g>
    <g>
     <g>
      <path class="fil0" d="M852.83 608.76c-0.33,0 -0.68,-0.09 -0.98,-0.24l-11.26 -5.61c-1.08,-0.55 -1.51,-1.89 -0.97,-2.95 0.53,-1.09 1.85,-1.53 2.95,-1.01l11.23 5.67c1.08,0.54 1.53,1.82 0.99,2.92 -0.39,0.77 -1.18,1.22 -1.96,1.22z"/>
     </g>
    </g>
   </g>
   <g>
    <g>
     <g>
      <path class="fil0" d="M831.99 575.8c-0.24,0 -0.49,-0.06 -0.73,-0.14l-70.19 -25.05c-1.14,-0.38 -1.73,-1.67 -1.33,-2.8 0.41,-1.14 1.66,-1.74 2.8,-1.31l70.17 25.03c1.15,0.43 1.75,1.64 1.35,2.8 -0.33,0.88 -1.17,1.47 -2.07,1.47z"/>
     </g>
    </g>
   </g>
   <g>
    <g>
     <g>
      <path class="fil0" d="M860.49 585.22c-0.23,0 -0.46,-0.03 -0.68,-0.08l-15.35 -5.09c-1.15,-0.4 -1.77,-1.68 -1.39,-2.82 0.39,-1.14 1.63,-1.77 2.78,-1.37l15.33 5.11c1.16,0.38 1.78,1.61 1.39,2.77 -0.3,0.93 -1.15,1.48 -2.08,1.48z"/>
     </g>
    </g>
   </g>
   <g>
    <g>
     <g>
      <path class="fil0" d="M812.92 547.87c-0.21,0 -0.39,-0.03 -0.55,-0.09l-34.25 -8.68c-1.18,-0.31 -1.9,-1.48 -1.58,-2.66 0.29,-1.16 1.48,-1.92 2.66,-1.58l34.23 8.67c1.18,0.33 1.9,1.51 1.6,2.7 -0.26,0.97 -1.15,1.64 -2.11,1.64z"/>
     </g>
    </g>
   </g>
   <g>
    <g>
     <g>
      <path class="fil0" d="M851.75 557.05c-0.18,0 -0.35,-0.03 -0.53,-0.09l-26.53 -6.53c-1.16,-0.29 -1.88,-1.49 -1.59,-2.65 0.28,-1.19 1.47,-1.9 2.67,-1.62l26.5 6.57c1.18,0.31 1.9,1.48 1.61,2.64 -0.27,1 -1.15,1.68 -2.13,1.68z"/>
     </g>
    </g>
   </g>
   <g>
    <g>
     <g>
      <path class="fil0" d="M845.67 529.52c-0.08,0 -0.14,0 -0.23,-0.03l-77.69 -8.11c-1.2,-0.11 -2.07,-1.19 -1.96,-2.39 0.14,-1.21 1.18,-2.06 2.42,-1.92l77.69 8.11c1.2,0.11 2.07,1.2 1.95,2.39 -0.11,1.14 -1.07,1.95 -2.18,1.95z"/>
     </g>
    </g>
   </g>
   <g>
    <g>
     <g>
      <path class="fil0" d="M879.34 533.01c-0.08,0 -0.17,0 -0.26,0l-20.89 -2.48c-1.2,-0.12 -2.06,-1.24 -1.92,-2.43 0.15,-1.21 1.23,-2.07 2.45,-1.89l20.89 2.46c1.19,0.15 2.06,1.23 1.9,2.43 -0.13,1.12 -1.07,1.91 -2.17,1.91z"/>
     </g>
    </g>
   </g>
   <g>
    <g>
     <g>
      <path class="fil0" d="M634.41 384.3c-1.22,0 -2.2,-0.99 -2.2,-2.19l0 -17.63c0,-1.23 0.98,-2.19 2.2,-2.19 1.2,0 2.19,0.96 2.19,2.19l0 17.63c0,1.2 -0.99,2.19 -2.19,2.19z"/>
     </g>
    </g>
   </g>
   <g>
    <g>
     <g>
      <path class="fil0" d="M635.43 354.91l-0.01 0c-1.22,0 -2.19,-1.01 -2.18,-2.19l0.28 -34.17c0.02,-1.21 1,-2.22 2.2,-2.22l0.01 0c1.21,0.06 2.19,1.03 2.18,2.25l-0.29 34.17c-0.01,1.18 -0.98,2.16 -2.19,2.16z"/>
     </g>
    </g>
   </g>
   <g>
    <g>
     <g>
      <path class="fil0" d="M635.94 314.57c-1.19,0 -2.18,-1.02 -2.18,-2.19l0 -16.89c0,-1.23 0.99,-2.19 2.18,-2.19 1.21,0 2.2,0.96 2.2,2.19l0 16.89c0,1.17 -0.99,2.19 -2.2,2.19z"/>
     </g>
    </g>
   </g>
   <g>
    <g>
     <g>
      <path class="fil0" d="M646.49 383.21c-0.08,0 -0.17,0 -0.27,0 -1.19,-0.16 -2.04,-1.24 -1.91,-2.42l10.6 -87.8c0.15,-1.21 1.24,-2.09 2.44,-1.9 1.21,0.14 2.06,1.23 1.92,2.41l-10.59 87.79c-0.14,1.13 -1.09,1.92 -2.19,1.92z"/>
     </g>
    </g>
   </g>
   <g>
    <g>
     <g>
      <path class="fil0" d="M658.93 283.85c-0.1,0 -0.22,0 -0.33,-0.03 -1.21,-0.18 -2.01,-1.31 -1.83,-2.48l3.08 -18.92c0.19,-1.19 1.31,-2 2.51,-1.82 1.19,0.21 2.01,1.31 1.81,2.53l-3.07 18.9c-0.18,1.07 -1.11,1.82 -2.17,1.82z"/>
     </g>
    </g>
   </g>
   <g>
    <g>
     <g>
      <path class="fil0" d="M658.83 386.8c-0.17,0 -0.34,-0.03 -0.53,-0.06 -1.18,-0.29 -1.89,-1.48 -1.6,-2.65l10.84 -44.66c0.29,-1.17 1.47,-1.91 2.65,-1.64 1.18,0.31 1.89,1.48 1.61,2.66l-10.85 44.67c-0.23,1.01 -1.14,1.68 -2.12,1.68z"/>
     </g>
    </g>
   </g>
   <g>
    <g>
     <g>
      <path class="fil0" d="M671.66 331.63c-0.18,0 -0.37,-0.03 -0.57,-0.06 -1.15,-0.32 -1.87,-1.49 -1.55,-2.65l15.39 -58.53c0.32,-1.16 1.52,-1.85 2.67,-1.55 1.18,0.29 1.88,1.49 1.56,2.66l-15.39 58.52c-0.26,0.97 -1.14,1.61 -2.11,1.61z"/>
     </g>
    </g>
   </g>
   <g>
    <g>
     <g>
      <path class="fil0" d="M672.9 388.51c-0.26,0 -0.53,-0.06 -0.78,-0.14 -1.15,-0.45 -1.7,-1.73 -1.27,-2.86l5.47 -14.15c0.43,-1.12 1.69,-1.68 2.82,-1.26 1.12,0.44 1.7,1.7 1.28,2.85l-5.48 14.13c-0.33,0.89 -1.16,1.43 -2.04,1.43z"/>
     </g>
    </g>
   </g>
   <g>
    <g>
     <g>
      <path class="fil0" d="M681.43 365.13c-0.29,0 -0.57,-0.07 -0.83,-0.2 -1.12,-0.42 -1.66,-1.74 -1.18,-2.83l10.71 -25.54c0.48,-1.17 1.77,-1.67 2.86,-1.2 1.13,0.45 1.66,1.75 1.2,2.87l-10.73 25.55c-0.36,0.84 -1.17,1.35 -2.03,1.35z"/>
     </g>
    </g>
   </g>
   <g>
    <g>
     <g>
      <path class="fil0" d="M695.74 325.78c-0.29,0 -0.57,-0.05 -0.84,-0.18 -1.12,-0.44 -1.64,-1.71 -1.2,-2.84l7.17 -17.39c0.45,-1.1 1.74,-1.64 2.85,-1.2 1.13,0.49 1.67,1.74 1.2,2.86l-7.15 17.41c-0.35,0.83 -1.18,1.34 -2.03,1.34z"/>
     </g>
    </g>
   </g>
   <g>
    <g>
     <g>
      <path class="fil0" d="M688.1 391.11c-0.34,0 -0.68,-0.09 -1.01,-0.24 -1.06,-0.59 -1.48,-1.89 -0.93,-2.98l40.34 -77.6c0.58,-1.05 1.88,-1.48 2.96,-0.91 1.07,0.55 1.49,1.88 0.93,2.94l-40.35 77.6c-0.36,0.74 -1.14,1.19 -1.94,1.19z"/>
     </g>
    </g>
   </g>
   <g>
    <g>
     <g>
      <path class="fil0" d="M732.02 304.83c-0.32,0 -0.64,-0.08 -0.95,-0.22 -1.09,-0.54 -1.55,-1.84 -1.01,-2.93l8.18 -16.87c0.52,-1.07 1.83,-1.57 2.92,-1.02 1.08,0.56 1.53,1.84 1.01,2.93l-8.18 16.85c-0.37,0.78 -1.15,1.26 -1.97,1.26z"/>
     </g>
    </g>
   </g>
   <g>
    <g>
     <g>
      <path class="fil0" d="M700.76 396.45c-0.39,0 -0.81,-0.09 -1.17,-0.34 -1.02,-0.65 -1.32,-1.99 -0.66,-3.04l43.51 -68.11c0.66,-1.01 2.02,-1.33 3.04,-0.63 1.02,0.6 1.3,1.94 0.67,3.01l-43.52 68.12c-0.43,0.65 -1.14,0.99 -1.87,0.99z"/>
     </g>
    </g>
   </g>
   <g>
    <g>
     <g>
      <path class="fil0" d="M753.49 316.6c-0.42,0 -0.84,-0.13 -1.21,-0.38 -1.02,-0.68 -1.28,-2.03 -0.61,-3.07l6.13 -9.2c0.68,-0.98 2.03,-1.25 3.04,-0.57 1.01,0.63 1.28,2.02 0.61,3.03l-6.14 9.19c-0.43,0.62 -1.11,1 -1.82,1z"/>
     </g>
    </g>
   </g>
   <g>
    <g>
     <g>
      <path class="fil0" d="M714.31 407.36c-0.5,0 -0.99,-0.16 -1.4,-0.51 -0.93,-0.74 -1.07,-2.14 -0.28,-3.07l9.53 -11.57c0.76,-0.92 2.15,-1.04 3.08,-0.31 0.94,0.8 1.07,2.19 0.3,3.11l-9.53 11.57c-0.44,0.49 -1.07,0.78 -1.7,0.78z"/>
     </g>
    </g>
   </g>
   <g>
    <g>
     <g>
      <path class="fil0" d="M732.54 384.54c-0.48,0 -0.98,-0.16 -1.37,-0.48 -0.96,-0.75 -1.1,-2.12 -0.34,-3.06l16.87 -20.96c0.75,-0.94 2.14,-1.11 3.09,-0.36 0.93,0.8 1.07,2.17 0.33,3.1l-16.88 20.96c-0.44,0.53 -1.07,0.8 -1.7,0.8z"/>
     </g>
    </g>
   </g>
   <g>
    <g>
     <g>
      <path class="fil0" d="M758.54 351.93c-0.55,0 -1.07,-0.21 -1.49,-0.6 -0.89,-0.81 -0.94,-2.21 -0.12,-3.1l7.22 -7.74c0.83,-0.86 2.22,-0.93 3.11,-0.1 0.88,0.81 0.94,2.21 0.1,3.1l-7.22 7.72c-0.44,0.48 -1.01,0.72 -1.6,0.72z"/>
     </g>
    </g>
   </g>
   <g>
    <g>
     <g>
      <path class="fil0" d="M724.8 417.24c-0.57,0 -1.13,-0.21 -1.56,-0.62 -0.86,-0.89 -0.84,-2.26 0.02,-3.11l61.39 -60.81c0.88,-0.85 2.25,-0.85 3.1,0.02 0.87,0.87 0.85,2.25 -0.01,3.07l-61.4 60.83c-0.43,0.41 -0.99,0.62 -1.54,0.62z"/>
     </g>
    </g>
   </g>
   <g>
    <g>
     <g>
      <path class="fil0" d="M796.83 346.07c-0.55,0 -1.13,-0.21 -1.56,-0.61 -0.86,-0.89 -0.86,-2.27 0,-3.11l8.17 -8.19c0.87,-0.85 2.26,-0.85 3.11,0 0.86,0.86 0.86,2.26 0,3.11l-8.17 8.19c-0.43,0.4 -0.99,0.61 -1.55,0.61z"/>
     </g>
    </g>
   </g>
   <g>
    <g>
     <g>
      <path class="fil0" d="M786.65 388.72c-0.65,0 -1.29,-0.3 -1.71,-0.83 -0.76,-0.95 -0.59,-2.32 0.35,-3.07l41.41 -32.75c0.95,-0.7 2.32,-0.55 3.08,0.4 0.75,0.93 0.58,2.33 -0.37,3.06l-41.4 32.72c-0.41,0.33 -0.88,0.47 -1.36,0.47z"/>
     </g>
    </g>
   </g>
   <g>
    <g>
     <g>
      <path class="fil0" d="M735.37 428.63c-0.66,0 -1.29,-0.27 -1.72,-0.8 -0.75,-0.98 -0.59,-2.36 0.36,-3.1l39.19 -30.91c0.95,-0.75 2.33,-0.56 3.06,0.38 0.77,0.95 0.6,2.33 -0.35,3.1l-39.18 30.9c-0.41,0.29 -0.89,0.43 -1.36,0.43z"/>
     </g>
    </g>
   </g>
   <g>
    <g>
     <g>
      <path class="fil0" d="M746.05 439.75c-0.74,0 -1.45,-0.34 -1.86,-1.02 -0.64,-1.06 -0.33,-2.4 0.7,-3.05l43.16 -26.66c1.03,-0.65 2.39,-0.32 3.03,0.71 0.63,1.03 0.31,2.37 -0.71,3.01l-43.17 26.7c-0.36,0.23 -0.75,0.31 -1.15,0.31z"/>
     </g>
    </g>
   </g>
   <g>
    <g>
     <g>
      <path class="fil0" d="M797.45 407.04c-0.73,0 -1.45,-0.38 -1.86,-1.03 -0.63,-1.03 -0.34,-2.37 0.69,-3.02l22.89 -14.38c1.02,-0.67 2.37,-0.33 3.02,0.66 0.65,1.03 0.33,2.4 -0.69,3.02l-22.9 14.41c-0.36,0.23 -0.75,0.34 -1.15,0.34z"/>
     </g>
    </g>
   </g>
   <g>
    <g>
     <g>
      <path class="fil0" d="M753.65 453.75c-0.82,0 -1.6,-0.44 -1.98,-1.22 -0.52,-1.11 -0.06,-2.4 1.04,-2.92l71.91 -33.96c1.09,-0.51 2.39,-0.06 2.91,1.07 0.53,1.05 0.06,2.36 -1.04,2.9l-71.9 33.93c-0.32,0.14 -0.62,0.2 -0.94,0.2z"/>
     </g>
    </g>
   </g>
   <g>
    <g>
     <g>
      <path class="fil0" d="M841.4 413.7c-0.81,0 -1.57,-0.45 -1.96,-1.23 -0.54,-1.09 -0.11,-2.4 0.98,-2.94l11.26 -5.64c1.07,-0.53 2.38,-0.08 2.93,1 0.54,1.1 0.1,2.41 -1,2.94l-11.22 5.63c-0.33,0.15 -0.66,0.24 -0.99,0.24z"/>
     </g>
    </g>
   </g>
   <g>
    <g>
     <g>
      <path class="fil0" d="M758.88 467.06c-0.9,0 -1.74,-0.55 -2.06,-1.47 -0.41,-1.11 0.19,-2.4 1.34,-2.78l72.91 -26.01c1.15,-0.43 2.4,0.17 2.8,1.31 0.42,1.13 -0.19,2.4 -1.32,2.8l-72.93 26.02c-0.25,0.1 -0.49,0.13 -0.74,0.13z"/>
     </g>
    </g>
   </g>
   <g>
    <g>
     <g>
      <path class="fil0" d="M844.98 436.71c-0.92,0 -1.77,-0.63 -2.09,-1.52 -0.37,-1.13 0.24,-2.42 1.39,-2.77l15.33 -5.1c1.17,-0.41 2.39,0.24 2.77,1.38 0.39,1.13 -0.23,2.36 -1.38,2.76l-15.33 5.13c-0.23,0.09 -0.46,0.12 -0.69,0.12z"/>
     </g>
    </g>
   </g>
   <g>
    <g>
     <g>
      <path class="fil0" d="M778.47 477.63c-0.98,0 -1.86,-0.63 -2.12,-1.62 -0.3,-1.21 0.41,-2.38 1.59,-2.68l34.24 -8.69c1.17,-0.28 2.36,0.4 2.66,1.6 0.3,1.16 -0.4,2.34 -1.58,2.64l-34.24 8.69c-0.19,0.06 -0.38,0.06 -0.55,0.06z"/>
     </g>
    </g>
   </g>
   <g>
    <g>
     <g>
      <path class="fil0" d="M825.04 466.33c-0.98,0 -1.88,-0.69 -2.13,-1.66 -0.3,-1.17 0.43,-2.36 1.6,-2.67l26.52 -6.56c1.18,-0.29 2.36,0.42 2.65,1.6 0.29,1.17 -0.42,2.37 -1.6,2.63l-26.52 6.6c-0.17,0.03 -0.35,0.06 -0.52,0.06z"/>
     </g>
    </g>
   </g>
   <g>
    <g>
     <g>
      <path class="fil0" d="M764.85 495.69c-1.11,0 -2.06,-0.84 -2.18,-1.94 -0.13,-1.2 0.75,-2.29 1.96,-2.44l80.63 -8.39c1.21,-0.15 2.28,0.74 2.42,1.95 0.12,1.22 -0.75,2.28 -1.96,2.39l-80.64 8.43c-0.08,0 -0.16,0 -0.23,0z"/>
     </g>
    </g>
   </g>
   <g>
    <g>
     <g>
      <path class="fil0" d="M858.26 486.27c-1.1,0 -2.04,-0.83 -2.17,-1.93 -0.15,-1.22 0.72,-2.29 1.91,-2.45l20.91 -2.48c1.21,-0.19 2.28,0.7 2.43,1.9 0.15,1.23 -0.72,2.29 -1.93,2.44l-20.9 2.52c-0.08,0 -0.17,0 -0.25,0z"/>
     </g>
    </g>
   </g>
   <g>
    <g>
     <g>
      <path class="fil0" d="M800.68 507.94l-21.97 0c-1.2,0 -2.18,-1 -2.18,-2.21 0,-1.19 0.98,-2.21 2.18,-2.21l21.97 0c1.23,0 2.21,1.02 2.21,2.21 0,1.21 -0.98,2.21 -2.21,2.21z"/>
     </g>
    </g>
   </g>
   <g>
    <g>
     <g>
      <path class="fil0" d="M865.59 507.41l-55.19 0c-1.2,0 -2.2,-0.98 -2.2,-2.19 0,-1.23 1,-2.19 2.2,-2.19l55.19 0c1.24,0 2.21,0.96 2.21,2.19 0,1.21 -0.97,2.19 -2.21,2.19z"/>
     </g>
    </g>
   </g>
   <g>
    <g>
     <g>
      <path class="fil0" d="M611.23 721c-0.09,0 -0.17,0 -0.27,0 -1.21,-0.15 -2.05,-1.27 -1.91,-2.47l11.17 -87.92c0.14,-1.18 1.27,-2.02 2.45,-1.87 1.2,0.14 2.05,1.25 1.91,2.42l-11.17 87.94c-0.15,1.13 -1.08,1.9 -2.18,1.9z"/>
     </g>
    </g>
   </g>
   <g>
    <g>
     <g>
      <path class="fil0" d="M606.32 751.51c-0.11,0 -0.24,-0.04 -0.35,-0.04 -1.19,-0.19 -2.01,-1.32 -1.82,-2.52l3.06 -18.91c0.21,-1.21 1.31,-2.04 2.52,-1.82 1.21,0.2 2.01,1.31 1.82,2.5l-3.06 18.92c-0.19,1.07 -1.11,1.87 -2.17,1.87z"/>
     </g>
    </g>
   </g>
   <g>
    <g>
     <g>
      <path class="fil0" d="M598.67 674.32c-0.19,0 -0.38,-0.02 -0.57,-0.05 -1.17,-0.34 -1.89,-1.52 -1.57,-2.68l11.66 -45.16c0.3,-1.15 1.49,-1.89 2.65,-1.59 1.18,0.29 1.89,1.51 1.58,2.68l-11.65 45.15c-0.25,0.98 -1.14,1.65 -2.1,1.65z"/>
     </g>
    </g>
   </g>
   <g>
    <g>
     <g>
      <path class="fil0" d="M581.27 743.31c-0.19,0 -0.36,-0.03 -0.55,-0.08 -1.18,-0.3 -1.88,-1.5 -1.56,-2.67l15.39 -58.52c0.31,-1.17 1.51,-1.87 2.67,-1.56 1.17,0.33 1.87,1.5 1.56,2.69l-15.39 58.5c-0.26,0.99 -1.15,1.64 -2.12,1.64z"/>
     </g>
    </g>
   </g>
   <g>
    <g>
     <g>
      <path class="fil0" d="M589.96 642.14c-0.26,0 -0.53,-0.08 -0.78,-0.17 -1.13,-0.44 -1.7,-1.72 -1.27,-2.82l5.16 -13.37c0.44,-1.13 1.7,-1.68 2.83,-1.24 1.13,0.42 1.7,1.68 1.26,2.84l-5.16 13.33c-0.33,0.88 -1.15,1.43 -2.04,1.43z"/>
     </g>
    </g>
   </g>
   <g>
    <g>
     <g>
      <path class="fil0" d="M576.17 676.85c-0.29,0 -0.58,-0.05 -0.85,-0.17 -1.12,-0.44 -1.64,-1.73 -1.18,-2.86l10.73 -25.53c0.48,-1.09 1.76,-1.68 2.87,-1.17 1.11,0.46 1.64,1.73 1.18,2.86l-10.74 25.55c-0.35,0.83 -1.17,1.32 -2.01,1.32z"/>
     </g>
    </g>
   </g>
   <g>
    <g>
     <g>
      <path class="fil0" d="M565.43 708.05c-0.28,0 -0.55,-0.03 -0.83,-0.16 -1.13,-0.48 -1.66,-1.73 -1.2,-2.85l7.15 -17.36c0.47,-1.16 1.75,-1.71 2.87,-1.22 1.12,0.44 1.65,1.74 1.2,2.88l-7.17 17.34c-0.34,0.87 -1.16,1.37 -2.02,1.37z"/>
     </g>
    </g>
   </g>
   <g>
    <g>
     <g>
      <path class="fil0" d="M539.88 702.93c-0.35,0 -0.69,-0.07 -1,-0.24 -1.09,-0.56 -1.5,-1.91 -0.94,-2.94l40.9 -78.73c0.56,-1.03 1.89,-1.44 2.97,-0.92 1.07,0.55 1.48,1.88 0.92,2.98l-40.91 78.7c-0.39,0.71 -1.15,1.15 -1.94,1.15z"/>
     </g>
    </g>
   </g>
   <g>
    <g>
     <g>
      <path class="fil0" d="M528.13 728.51c-0.33,0 -0.65,-0.09 -0.97,-0.26 -1.07,-0.5 -1.54,-1.82 -1,-2.89l8.17 -16.88c0.52,-1.1 1.84,-1.58 2.93,-1 1.09,0.51 1.55,1.84 1.01,2.9l-8.17 16.88c-0.37,0.79 -1.16,1.25 -1.97,1.25z"/>
     </g>
    </g>
   </g>
   <g>
    <g>
     <g>
      <path class="fil0" d="M524.04 688.11c-0.41,0 -0.82,-0.08 -1.19,-0.32 -1.02,-0.67 -1.31,-2.02 -0.66,-3.05l42.55 -66.59c0.65,-1.04 2,-1.33 3.02,-0.66 1.02,0.66 1.31,2.03 0.66,3.02l-42.53 66.61c-0.42,0.64 -1.14,0.99 -1.85,0.99z"/>
     </g>
    </g>
   </g>
   <g>
    <g>
     <g>
      <path class="fil0" d="M508.7 709.08c-0.41,0 -0.83,-0.12 -1.21,-0.38 -1.01,-0.65 -1.28,-2.02 -0.6,-3.01l6.12 -9.23c0.66,-1 2.03,-1.28 3.04,-0.59 1.01,0.65 1.27,1.99 0.6,3.04l-6.12 9.19c-0.42,0.63 -1.12,0.98 -1.83,0.98z"/>
     </g>
    </g>
   </g>
   <g>
    <g>
     <g>
      <path class="fil0" d="M518.93 652.87c-0.49,0 -0.97,-0.18 -1.39,-0.5 -0.94,-0.75 -1.08,-2.13 -0.32,-3.09l16.85 -20.97c0.77,-0.9 2.15,-1.06 3.09,-0.32 0.95,0.77 1.09,2.14 0.33,3.09l-16.86 20.95c-0.44,0.54 -1.06,0.84 -1.7,0.84z"/>
     </g>
    </g>
   </g>
   <g>
    <g>
     <g>
      <path class="fil0" d="M502.57 672.26c-0.54,0 -1.08,-0.2 -1.5,-0.58 -0.89,-0.83 -0.94,-2.19 -0.11,-3.1l7.22 -7.73c0.82,-0.87 2.22,-0.92 3.1,-0.13 0.87,0.85 0.93,2.22 0.11,3.11l-7.21 7.76c-0.45,0.43 -1.03,0.67 -1.61,0.67z"/>
     </g>
    </g>
   </g>
   <g>
    <g>
     <g>
      <path class="fil0" d="M482.13 660.01c-0.58,0 -1.13,-0.21 -1.56,-0.66 -0.85,-0.85 -0.85,-2.25 0.01,-3.08l57.14 -56.58c0.84,-0.88 2.24,-0.85 3.1,0 0.84,0.86 0.83,2.26 -0.02,3.09l-57.13 56.61c-0.43,0.41 -0.99,0.62 -1.54,0.62z"/>
     </g>
    </g>
   </g>
   <g>
    <g>
     <g>
      <path class="fil0" d="M463.33 678.56c-0.56,0 -1.13,-0.22 -1.56,-0.63 -0.85,-0.89 -0.85,-2.26 0,-3.1l8.18 -8.21c0.86,-0.83 2.24,-0.83 3.11,0 0.86,0.87 0.86,2.25 0,3.13l-8.18 8.18c-0.43,0.41 -1,0.63 -1.55,0.63z"/>
     </g>
    </g>
   </g>
   <g>
    <g>
     <g>
      <path class="fil0" d="M440.27 660.46c-0.65,0 -1.28,-0.31 -1.71,-0.83 -0.76,-0.99 -0.6,-2.34 0.35,-3.11l41.4 -32.7c0.95,-0.74 2.33,-0.55 3.08,0.36 0.76,0.95 0.6,2.31 -0.35,3.1l-41.41 32.7c-0.38,0.32 -0.89,0.48 -1.36,0.48z"/>
     </g>
    </g>
   </g>
   <g>
    <g>
     <g>
      <path class="fil0" d="M493.76 618.71c-0.64,0 -1.28,-0.3 -1.7,-0.84 -0.77,-0.96 -0.6,-2.32 0.34,-3.08l33.04 -26.04c0.94,-0.76 2.33,-0.59 3.07,0.37 0.75,0.95 0.59,2.33 -0.36,3.1l-33.02 26.02c-0.41,0.32 -0.89,0.47 -1.37,0.47z"/>
     </g>
    </g>
   </g>
   <g>
    <g>
     <g>
      <path class="fil0" d="M479.12 603.38c-0.73,0 -1.45,-0.38 -1.87,-1.05 -0.63,-0.99 -0.3,-2.37 0.73,-3l38.89 -24.1c1.04,-0.6 2.38,-0.29 3.01,0.75 0.65,1.02 0.33,2.36 -0.7,2.98l-38.9 24.09c-0.36,0.21 -0.77,0.33 -1.16,0.33z"/>
     </g>
    </g>
   </g>
   <g>
    <g>
     <g>
      <path class="fil0" d="M448 623.82c-0.72,0 -1.44,-0.35 -1.85,-1.02 -0.66,-1.01 -0.34,-2.37 0.67,-3.02l22.89 -14.43c1.03,-0.65 2.38,-0.31 3.01,0.71 0.66,1.02 0.35,2.36 -0.67,3.01l-22.87 14.43c-0.38,0.2 -0.78,0.32 -1.18,0.32z"/>
     </g>
    </g>
   </g>
   <g>
    <g>
     <g>
      <path class="fil0" d="M442.78 596.61c-0.83,0 -1.63,-0.44 -2,-1.23 -0.51,-1.1 -0.05,-2.4 1.06,-2.9l66.38 -31.39c1.09,-0.51 2.39,-0.03 2.91,1.06 0.52,1.1 0.04,2.4 -1.04,2.93l-66.39 31.33c-0.31,0.14 -0.61,0.2 -0.92,0.2z"/>
     </g>
    </g>
   </g>
   <g>
    <g>
     <g>
      <path class="fil0" d="M415.69 608.36c-0.81,0 -1.58,-0.41 -1.98,-1.2 -0.53,-1.07 -0.09,-2.4 1,-2.92l11.23 -5.62c1.08,-0.56 2.41,-0.1 2.93,0.98 0.56,1.06 0.11,2.4 -0.96,2.93l-11.25 5.64c-0.31,0.14 -0.65,0.19 -0.97,0.19z"/>
     </g>
    </g>
   </g>
   <g>
    <g>
     <g>
      <path class="fil0" d="M436.51 575.43c-0.89,0 -1.74,-0.58 -2.05,-1.47 -0.41,-1.14 0.18,-2.37 1.32,-2.79l68.41 -24.4c1.14,-0.4 2.39,0.18 2.8,1.3 0.41,1.16 -0.18,2.43 -1.33,2.79l-68.41 24.4c-0.23,0.08 -0.48,0.17 -0.74,0.17z"/>
     </g>
    </g>
   </g>
   <g>
    <g>
     <g>
      <path class="fil0" d="M408.02 584.87c-0.93,0 -1.78,-0.58 -2.09,-1.47 -0.38,-1.19 0.25,-2.4 1.39,-2.8l15.34 -5.11c1.15,-0.4 2.38,0.25 2.77,1.38 0.37,1.18 -0.25,2.4 -1.4,2.81l-15.32 5.1c-0.24,0.06 -0.46,0.09 -0.69,0.09z"/>
     </g>
    </g>
   </g>
   <g>
    <g>
     <g>
      <path class="fil0" d="M455.61 547.49c-0.98,0 -1.87,-0.67 -2.12,-1.67 -0.31,-1.16 0.4,-2.35 1.59,-2.64l34.23 -8.69c1.17,-0.28 2.36,0.4 2.66,1.57 0.31,1.17 -0.41,2.37 -1.58,2.67l-34.25 8.69c-0.18,0.07 -0.35,0.07 -0.53,0.07z"/>
     </g>
    </g>
   </g>
   <g>
    <g>
     <g>
      <path class="fil0" d="M416.76 556.7c-0.98,0 -1.88,-0.67 -2.13,-1.68 -0.29,-1.16 0.42,-2.35 1.61,-2.63l26.52 -6.6c1.14,-0.28 2.36,0.44 2.64,1.6 0.29,1.17 -0.43,2.39 -1.6,2.68l-26.51 6.54c-0.17,0.06 -0.36,0.09 -0.53,0.09z"/>
     </g>
    </g>
   </g>
   <g>
    <g>
     <g>
      <path class="fil0" d="M422.83 529.17c-1.09,0 -2.05,-0.83 -2.17,-1.98 -0.13,-1.19 0.75,-2.28 1.96,-2.4l80.76 -8.43c1.22,-0.14 2.28,0.77 2.41,1.97 0.12,1.2 -0.76,2.28 -1.96,2.4l-80.75 8.41c-0.09,0.03 -0.17,0.03 -0.25,0.03z"/>
     </g>
    </g>
   </g>
   <g>
    <g>
     <g>
      <path class="fil0" d="M392.85 532.86c-1.06,0 -2.01,-0.73 -2.16,-1.82 -0.2,-1.2 0.63,-2.3 1.83,-2.53l17.2 -2.67c1.22,-0.17 2.31,0.62 2.51,1.81 0.19,1.2 -0.64,2.33 -1.83,2.53l-17.22 2.66c-0.12,0.02 -0.22,0.02 -0.33,0.02z"/>
     </g>
    </g>
   </g>
   <g>
    <g>
     <g>
      <path class="fil0" d="M622.22 384.57c-1.09,0 -2.04,-0.81 -2.17,-1.91l-10.81 -89.53c-0.15,-1.2 0.7,-2.26 1.91,-2.41 1.21,-0.14 2.3,0.71 2.44,1.92l10.82 89.51c0.14,1.19 -0.71,2.28 -1.91,2.42 -0.1,0 -0.19,0 -0.28,0z"/>
     </g>
    </g>
   </g>
   <g>
    <g>
     <g>
      <path class="fil0" d="M609.57 283.5c-1.06,0 -1.99,-0.76 -2.17,-1.84l-3.06 -18.91c-0.2,-1.19 0.61,-2.31 1.81,-2.52 1.23,-0.21 2.33,0.64 2.52,1.84l3.06 18.92c0.19,1.18 -0.63,2.31 -1.83,2.48 -0.11,0.03 -0.22,0.03 -0.33,0.03z"/>
     </g>
    </g>
   </g>
   <g>
    <g>
     <g>
      <path class="fil0" d="M609.41 385.37c-0.98,0 -1.87,-0.68 -2.11,-1.69l-10.59 -43.59c-0.29,-1.17 0.43,-2.36 1.6,-2.65 1.18,-0.27 2.35,0.46 2.65,1.64l10.59 43.58c0.3,1.16 -0.44,2.37 -1.63,2.63 -0.17,0.05 -0.33,0.08 -0.51,0.08z"/>
     </g>
    </g>
   </g>
   <g>
    <g>
     <g>
      <path class="fil0" d="M596.86 331.28c-0.99,0 -1.88,-0.64 -2.13,-1.63l-15.4 -58.51c-0.29,-1.17 0.39,-2.36 1.56,-2.67 1.18,-0.34 2.38,0.39 2.69,1.55l15.39 58.52c0.3,1.18 -0.39,2.37 -1.56,2.68 -0.19,0.03 -0.38,0.06 -0.55,0.06z"/>
     </g>
    </g>
   </g>
   <g>
    <g>
     <g>
      <path class="fil0" d="M595.57 388.05c-0.88,0 -1.71,-0.57 -2.04,-1.41l-5.43 -14.04c-0.43,-1.16 0.13,-2.41 1.25,-2.87 1.13,-0.42 2.4,0.12 2.84,1.26l5.43 14.07c0.42,1.13 -0.14,2.39 -1.27,2.83 -0.25,0.13 -0.52,0.16 -0.78,0.16z"/>
     </g>
    </g>
   </g>
   <g>
    <g>
     <g>
      <path class="fil0" d="M587.07 364.76c-0.85,0 -1.67,-0.5 -2.01,-1.36l-10.74 -25.54c-0.46,-1.1 0.05,-2.4 1.18,-2.84 1.1,-0.48 2.39,0.06 2.87,1.17l10.73 25.55c0.47,1.1 -0.05,2.4 -1.18,2.85 -0.27,0.11 -0.56,0.17 -0.85,0.17z"/>
     </g>
    </g>
   </g>
   <g>
    <g>
     <g>
      <path class="fil0" d="M572.76 325.43c-0.85,0 -1.67,-0.53 -2.01,-1.37l-7.17 -17.39c-0.45,-1.1 0.08,-2.38 1.2,-2.86 1.12,-0.43 2.4,0.09 2.87,1.21l7.14 17.37c0.46,1.1 -0.07,2.4 -1.19,2.85 -0.28,0.12 -0.55,0.19 -0.84,0.19z"/>
     </g>
    </g>
   </g>
   <g>
    <g>
     <g>
      <path class="fil0" d="M580.43 390.84c-0.79,0 -1.55,-0.47 -1.93,-1.22l-40.38 -77.67c-0.56,-1.03 -0.15,-2.37 0.93,-2.92 1.07,-0.55 2.39,-0.16 2.96,0.9l40.36 77.68c0.57,1.08 0.15,2.41 -0.92,2.93 -0.33,0.17 -0.66,0.3 -1.02,0.3z"/>
     </g>
    </g>
   </g>
   <g>
    <g>
     <g>
      <path class="fil0" d="M536.47 304.48c-0.8,0 -1.59,-0.5 -1.96,-1.26l-8.18 -16.87c-0.53,-1.07 -0.07,-2.41 1.01,-2.91 1.1,-0.55 2.42,-0.08 2.93,1.02l8.18 16.85c0.53,1.11 0.07,2.42 -1.01,2.91 -0.31,0.16 -0.64,0.26 -0.97,0.26z"/>
     </g>
    </g>
   </g>
   <g>
    <g>
     <g>
      <path class="fil0" d="M567.82 396.21c-0.73,0 -1.44,-0.37 -1.87,-1.03l-43.58 -68.21c-0.66,-1.03 -0.36,-2.38 0.66,-3.02 1.02,-0.65 2.38,-0.37 3.03,0.68l43.59 68.22c0.65,1 0.36,2.36 -0.66,2.99 -0.36,0.23 -0.78,0.37 -1.17,0.37z"/>
     </g>
    </g>
   </g>
   <g>
    <g>
     <g>
      <path class="fil0" d="M515.02 316.22c-0.71,0 -1.41,-0.36 -1.82,-0.98l-6.13 -9.21c-0.68,-1.01 -0.42,-2.36 0.59,-3.04 1.02,-0.7 2.38,-0.38 3.04,0.61l6.14 9.21c0.66,1.01 0.39,2.38 -0.61,3.03 -0.38,0.26 -0.8,0.38 -1.21,0.38z"/>
     </g>
    </g>
   </g>
   <g>
    <g>
     <g>
      <path class="fil0" d="M535.98 384.19c-0.65,0 -1.28,-0.29 -1.72,-0.82l-16.86 -20.94c-0.77,-0.95 -0.61,-2.33 0.34,-3.11 0.93,-0.75 2.31,-0.59 3.08,0.33l16.86 20.96c0.75,0.93 0.6,2.33 -0.34,3.1 -0.41,0.32 -0.9,0.48 -1.36,0.48z"/>
     </g>
    </g>
   </g>
   <g>
    <g>
     <g>
      <path class="fil0" d="M509.97 351.55c-0.6,0 -1.18,-0.22 -1.62,-0.69l-7.2 -7.74c-0.83,-0.91 -0.78,-2.28 0.11,-3.11 0.89,-0.82 2.26,-0.76 3.09,0.11l7.22 7.75c0.82,0.88 0.77,2.25 -0.11,3.1 -0.43,0.4 -0.96,0.58 -1.49,0.58z"/>
     </g>
    </g>
   </g>
   <g>
    <g>
     <g>
      <path class="fil0" d="M543.73 417c-0.51,0 -1,-0.16 -1.41,-0.6l-0.19 -0.17 -61.37 -60.78c-0.85,-0.82 -0.86,-2.25 -0.02,-3.09 0.86,-0.87 2.26,-0.87 3.11,-0.03l61.37 60.8c0.86,0.85 0.95,2.32 0.11,3.18 -0.45,0.47 -1.03,0.69 -1.6,0.69z"/>
     </g>
    </g>
   </g>
   <g>
    <g>
     <g>
      <path class="fil0" d="M471.68 345.72c-0.55,0 -1.12,-0.2 -1.54,-0.65l-8.17 -8.15c-0.86,-0.88 -0.86,-2.27 0,-3.11 0.85,-0.86 2.24,-0.86 3.09,0l8.18 8.18c0.85,0.84 0.85,2.23 0,3.08 -0.45,0.45 -1,0.65 -1.56,0.65z"/>
     </g>
    </g>
   </g>
   <g>
    <g>
     <g>
      <path class="fil0" d="M481.84 388.37c-0.46,0 -0.94,-0.15 -1.35,-0.48l-41.38 -32.71c-0.95,-0.73 -1.13,-2.13 -0.37,-3.11 0.74,-0.92 2.12,-1.07 3.07,-0.35l41.4 32.73c0.95,0.75 1.12,2.14 0.35,3.06 -0.43,0.56 -1.07,0.86 -1.72,0.86z"/>
     </g>
    </g>
   </g>
   <g>
    <g>
     <g>
      <path class="fil0" d="M532.41 427.71c-0.48,0 -0.94,-0.15 -1.35,-0.45l-38.46 -30.36c-0.95,-0.76 -1.11,-2.1 -0.37,-3.08 0.77,-0.94 2.13,-1.09 3.08,-0.37l38.46 30.32c0.96,0.79 1.11,2.16 0.37,3.11 -0.43,0.55 -1.08,0.83 -1.73,0.83z"/>
     </g>
    </g>
   </g>
   <g>
    <g>
     <g>
      <path class="fil0" d="M523.36 439.98c-0.4,0 -0.79,-0.12 -1.15,-0.34l-44.07 -27.26c-1.02,-0.65 -1.34,-1.99 -0.71,-3 0.64,-1.04 2,-1.36 3.01,-0.74l44.07 27.27c1.03,0.65 1.35,1.98 0.72,3.01 -0.42,0.69 -1.14,1.06 -1.87,1.06z"/>
     </g>
    </g>
   </g>
   <g>
    <g>
     <g>
      <path class="fil0" d="M471.07 406.66c-0.41,0 -0.8,-0.08 -1.18,-0.31l-22.89 -14.42c-1.01,-0.64 -1.33,-2.01 -0.68,-3.04 0.64,-1 2.01,-1.33 3.02,-0.67l22.9 14.42c1.03,0.63 1.32,1.99 0.68,2.99 -0.42,0.69 -1.14,1.03 -1.85,1.03z"/>
     </g>
    </g>
   </g>
   <g>
    <g>
     <g>
      <path class="fil0" d="M516.61 454.23c-0.3,0 -0.62,-0.06 -0.93,-0.2l-73.66 -34.81c-1.1,-0.49 -1.56,-1.81 -1.05,-2.91 0.52,-1.07 1.83,-1.54 2.92,-1l73.66 34.77c1.1,0.52 1.57,1.83 1.05,2.92 -0.38,0.79 -1.15,1.23 -1.99,1.23z"/>
     </g>
    </g>
   </g>
   <g>
    <g>
     <g>
      <path class="fil0" d="M427.11 413.33c-0.34,0 -0.66,-0.08 -0.97,-0.23l-11.26 -5.62c-1.07,-0.55 -1.52,-1.88 -0.98,-2.94 0.54,-1.1 1.86,-1.55 2.94,-1l11.26 5.62c1.08,0.57 1.51,1.87 0.99,2.94 -0.41,0.79 -1.18,1.23 -1.98,1.23z"/>
     </g>
    </g>
   </g>
   <g>
    <g>
     <g>
      <path class="fil0" d="M510.83 467.12c-0.24,0 -0.49,-0.03 -0.73,-0.12l-74.14 -26.46c-1.14,-0.42 -1.73,-1.65 -1.32,-2.81 0.4,-1.12 1.65,-1.77 2.8,-1.3l74.13 26.43c1.14,0.38 1.74,1.67 1.32,2.78 -0.32,0.92 -1.16,1.48 -2.06,1.48z"/>
     </g>
    </g>
   </g>
   <g>
    <g>
     <g>
      <path class="fil0" d="M423.54 436.33c-0.23,0 -0.46,-0.06 -0.71,-0.13l-15.33 -5.11c-1.14,-0.37 -1.77,-1.61 -1.39,-2.75 0.39,-1.19 1.61,-1.78 2.78,-1.43l15.33 5.13c1.16,0.38 1.77,1.62 1.4,2.81 -0.32,0.86 -1.17,1.48 -2.08,1.48z"/>
     </g>
    </g>
   </g>
   <g>
    <g>
     <g>
      <path class="fil0" d="M490.04 477.3c-0.18,0 -0.36,-0.03 -0.55,-0.08l-34.24 -8.69c-1.17,-0.3 -1.88,-1.47 -1.58,-2.64 0.3,-1.22 1.48,-1.88 2.65,-1.59l34.25 8.66c1.17,0.32 1.88,1.52 1.59,2.67 -0.25,1.01 -1.15,1.67 -2.12,1.67z"/>
     </g>
    </g>
   </g>
   <g>
    <g>
     <g>
      <path class="fil0" d="M443.45 465.97c-0.16,0 -0.33,-0.03 -0.52,-0.06l-26.51 -6.59c-1.19,-0.29 -1.9,-1.46 -1.6,-2.63 0.28,-1.19 1.49,-1.91 2.65,-1.6l26.51 6.54c1.18,0.3 1.9,1.5 1.6,2.7 -0.24,0.98 -1.13,1.64 -2.13,1.64z"/>
     </g>
    </g>
   </g>
   <g>
    <g>
     <g>
      <path class="fil0" d="M501.81 495.16c-0.08,0 -0.16,0 -0.24,0l-78.78 -8.25c-1.2,-0.11 -2.08,-1.19 -1.94,-2.41 0.11,-1.19 1.18,-2.08 2.4,-1.93l78.78 8.22c1.2,0.12 2.09,1.22 1.95,2.4 -0.11,1.12 -1.07,1.97 -2.17,1.97z"/>
     </g>
    </g>
   </g>
   <g>
    <g>
     <g>
      <path class="fil0" d="M410.24 485.91c-0.06,0 -0.15,0 -0.22,0l-15.2 -1.52c-1.2,-0.11 -2.08,-1.2 -1.96,-2.41 0.12,-1.19 1.15,-2.04 2.39,-1.95l15.21 1.47c1.21,0.11 2.08,1.21 1.96,2.41 -0.11,1.13 -1.06,2 -2.18,2z"/>
     </g>
    </g>
   </g>
   <g>
    <g>
     <g>
      <path class="fil0" d="M489.78 507.56l-21.97 0c-1.21,0 -2.18,-0.99 -2.18,-2.2 0,-1.22 0.97,-2.19 2.18,-2.19l21.97 0c1.21,0 2.2,0.97 2.2,2.19 0,1.21 -0.99,2.2 -2.2,2.2z"/>
     </g>
    </g>
   </g>
   <g>
    <g>
     <g>
      <path class="fil0" d="M458.11 507.05l-55.2 0c-1.21,0 -2.19,-0.97 -2.19,-2.19 0,-1.23 0.98,-2.2 2.19,-2.2l55.2 0c1.2,0 2.2,0.97 2.2,2.2 0,1.22 -1,2.19 -2.2,2.19z"/>
     </g>
    </g>
   </g>
  </g>
 </g>
</svg>
